<svg width="13" height="13" viewBox="0 0 13 13" fill="none" xmlns="http://www.w3.org/2000/svg">
<path d="M9.85547 2.78564H8.85547V2.28564C8.85547 2.15304 8.80279 2.02586 8.70902 1.93209C8.61525 1.83832 8.48808 1.78564 8.35547 1.78564C8.22286 1.78564 8.09568 1.83832 8.00192 1.93209C7.90815 2.02586 7.85547 2.15304 7.85547 2.28564V2.78564H4.85547V2.28564C4.85547 2.15304 4.80279 2.02586 4.70902 1.93209C4.61525 1.83832 4.48808 1.78564 4.35547 1.78564C4.22286 1.78564 4.09568 1.83832 4.00192 1.93209C3.90815 2.02586 3.85547 2.15304 3.85547 2.28564V2.78564H2.85547C2.45764 2.78564 2.07611 2.94368 1.79481 3.22498C1.5135 3.50629 1.35547 3.88782 1.35547 4.28564V10.2856C1.35547 10.6835 1.5135 11.065 1.79481 11.3463C2.07611 11.6276 2.45764 11.7856 2.85547 11.7856H9.85547C10.2533 11.7856 10.6348 11.6276 10.9161 11.3463C11.1974 11.065 11.3555 10.6835 11.3555 10.2856V4.28564C11.3555 3.88782 11.1974 3.50629 10.9161 3.22498C10.6348 2.94368 10.2533 2.78564 9.85547 2.78564ZM10.3555 10.2856C10.3555 10.4183 10.3028 10.5454 10.209 10.6392C10.1153 10.733 9.98808 10.7856 9.85547 10.7856H2.85547C2.72286 10.7856 2.59568 10.733 2.50192 10.6392C2.40815 10.5454 2.35547 10.4183 2.35547 10.2856V6.78564H10.3555V10.2856ZM10.3555 5.78564H2.35547V4.28564C2.35547 4.15304 2.40815 4.02586 2.50192 3.93209C2.59568 3.83832 2.72286 3.78564 2.85547 3.78564H3.85547V4.28564C3.85547 4.41825 3.90815 4.54543 4.00192 4.6392C4.09568 4.73297 4.22286 4.78564 4.35547 4.78564C4.48808 4.78564 4.61525 4.73297 4.70902 4.6392C4.80279 4.54543 4.85547 4.41825 4.85547 4.28564V3.78564H7.85547V4.28564C7.85547 4.41825 7.90815 4.54543 8.00192 4.6392C8.09568 4.73297 8.22286 4.78564 8.35547 4.78564C8.48808 4.78564 8.61525 4.73297 8.70902 4.6392C8.80279 4.54543 8.85547 4.41825 8.85547 4.28564V3.78564H9.85547C9.98808 3.78564 10.1153 3.83832 10.209 3.93209C10.3028 4.02586 10.3555 4.15304 10.3555 4.28564V5.78564Z" fill="#9094A0"/>
</svg>
