<svg width="81" height="83" viewBox="0 0 81 83" fill="none" xmlns="http://www.w3.org/2000/svg">
<path fill-rule="evenodd" clip-rule="evenodd" d="M41 2C63.0916 2 81 19.9086 81 41.9998C81 64.0911 63.0916 81.9997 41 81.9997C18.9089 81.9997 1 64.0911 1 41.9998C1 19.9086 18.9089 2 41 2Z" fill="#BBA664"/>
<path fill-rule="evenodd" clip-rule="evenodd" d="M41 2C63.0916 2 81 19.9086 81 41.9998C81 64.0911 63.0916 81.9997 41 81.9997C18.9089 81.9997 1 64.0911 1 41.9998C1 19.9086 18.9089 2 41 2Z" fill="url(#paint0_linear_60_1095)" style="mix-blend-mode:overlay"/>
<path d="M54.4277 27.1428H50.4277V25.1428C50.4277 24.6124 50.217 24.1037 49.8419 23.7286C49.4669 23.3535 48.9582 23.1428 48.4277 23.1428C47.8973 23.1428 47.3886 23.3535 47.0135 23.7286C46.6384 24.1037 46.4277 24.6124 46.4277 25.1428V27.1428H34.4277V25.1428C34.4277 24.6124 34.217 24.1037 33.8419 23.7286C33.4669 23.3535 32.9582 23.1428 32.4277 23.1428C31.8973 23.1428 31.3886 23.3535 31.0135 23.7286C30.6384 24.1037 30.4277 24.6124 30.4277 25.1428V27.1428H26.4277C24.8364 27.1428 23.3103 27.775 22.1851 28.9002C21.0599 30.0254 20.4277 31.5515 20.4277 33.1428V57.1428C20.4277 58.7341 21.0599 60.2602 22.1851 61.3855C23.3103 62.5107 24.8364 63.1428 26.4277 63.1428H54.4277C56.019 63.1428 57.5452 62.5107 58.6704 61.3855C59.7956 60.2602 60.4277 58.7341 60.4277 57.1428V33.1428C60.4277 31.5515 59.7956 30.0254 58.6704 28.9002C57.5452 27.775 56.019 27.1428 54.4277 27.1428ZM56.4277 57.1428C56.4277 57.6733 56.217 58.182 55.8419 58.557C55.4669 58.9321 54.9582 59.1428 54.4277 59.1428H26.4277C25.8973 59.1428 25.3886 58.9321 25.0135 58.557C24.6384 58.182 24.4277 57.6733 24.4277 57.1428V43.1428H56.4277V57.1428ZM56.4277 39.1428H24.4277V33.1428C24.4277 32.6124 24.6384 32.1037 25.0135 31.7286C25.3886 31.3535 25.8973 31.1428 26.4277 31.1428H30.4277V33.1428C30.4277 33.6733 30.6384 34.182 31.0135 34.557C31.3886 34.9321 31.8973 35.1428 32.4277 35.1428C32.9582 35.1428 33.4669 34.9321 33.8419 34.557C34.217 34.182 34.4277 33.6733 34.4277 33.1428V31.1428H46.4277V33.1428C46.4277 33.6733 46.6384 34.182 47.0135 34.557C47.3886 34.9321 47.8973 35.1428 48.4277 35.1428C48.9582 35.1428 49.4669 34.9321 49.8419 34.557C50.217 34.182 50.4277 33.6733 50.4277 33.1428V31.1428H54.4277C54.9582 31.1428 55.4669 31.3535 55.8419 31.7286C56.217 32.1037 56.4277 32.6124 56.4277 33.1428V39.1428Z" fill="white"/>
<defs>
<linearGradient id="paint0_linear_60_1095" x1="40.6002" y1="124.799" x2="123" y2="42.3998" gradientUnits="userSpaceOnUse">
<stop stop-color="white" stop-opacity="0.01"/>
<stop offset="1" stop-color="white" stop-opacity="0.5"/>
</linearGradient>
</defs>
</svg>
