<svg width="12" height="13" viewBox="0 0 12 13" fill="none" xmlns="http://www.w3.org/2000/svg">
<g clip-path="url(#clip0_1334_2543)">
<path d="M5 6.16797H6V6.83464H5V6.16797Z" fill="#9094A0"/>
<path d="M8.81406 5.22514C8.22288 4.25774 7.4164 3.43985 6.4574 2.83514C6.01436 2.55435 5.50933 2.38629 4.9864 2.34561C4.46346 2.30494 3.93851 2.3929 3.4574 2.60181C3.03656 2.80031 2.67038 3.09826 2.39046 3.46994C2.11053 3.84162 1.92529 4.27585 1.85073 4.73514C1.82406 4.89181 1.80406 5.04181 1.78406 5.18847C1.47198 5.23906 1.18802 5.39889 0.982873 5.63945C0.777724 5.88002 0.664732 6.18565 0.664062 6.50181V8.54514C0.664063 8.72195 0.7343 8.89152 0.859325 9.01654C0.984349 9.14157 1.15392 9.2118 1.33073 9.2118V6.50181C1.33073 6.32499 1.40097 6.15543 1.52599 6.0304C1.65102 5.90538 1.82058 5.83514 1.9974 5.83514H8.24073C8.88317 5.83602 9.49904 6.09162 9.95331 6.54589C10.4076 7.00016 10.6632 7.61603 10.6641 8.25847V8.50181H9.9974C9.85662 8.15851 9.59437 7.87907 9.26069 7.7168C8.92702 7.55452 8.54527 7.52079 8.18831 7.62203C7.83135 7.72326 7.52416 7.95238 7.32535 8.26567C7.12655 8.57895 7.05005 8.95447 7.11045 9.32056C7.17086 9.68665 7.36394 10.0177 7.65285 10.2505C7.94176 10.4833 8.30628 10.6016 8.67684 10.5828C9.0474 10.564 9.39807 10.4094 9.66193 10.1485C9.92579 9.88768 10.0844 9.5388 10.1074 9.16847H10.6641C10.8409 9.16847 11.0104 9.09823 11.1355 8.97321C11.2605 8.84819 11.3307 8.67862 11.3307 8.50181V8.25847C11.3294 7.53911 11.0774 6.84272 10.618 6.28909C10.1587 5.73547 9.52081 5.35924 8.81406 5.22514ZM3.66406 5.16847H2.3074C2.3074 5.06514 2.3374 4.95847 2.3574 4.83514C2.41499 4.46896 2.56528 4.12359 2.79398 3.83188C3.02269 3.54016 3.32221 3.31179 3.66406 3.16847V5.16847ZM4.33073 5.16847V3.02847C4.95305 2.94766 5.58418 3.08425 6.1174 3.41514C6.84531 3.86853 7.47356 4.46503 7.96406 5.16847H4.33073ZM8.5974 9.9618C8.43258 9.9618 8.27146 9.91293 8.13442 9.82136C7.99738 9.72979 7.89057 9.59965 7.8275 9.44737C7.76442 9.2951 7.74792 9.12755 7.78008 8.9659C7.81223 8.80425 7.8916 8.65576 8.00814 8.53922C8.12468 8.42267 8.27317 8.34331 8.43482 8.31115C8.59647 8.279 8.76403 8.2955 8.9163 8.35857C9.06857 8.42165 9.19872 8.52846 9.29029 8.6655C9.38186 8.80254 9.43073 8.96365 9.43073 9.12847C9.43073 9.34949 9.34293 9.56145 9.18665 9.71773C9.03037 9.87401 8.81841 9.9618 8.5974 9.9618Z" fill="#9094A0"/>
<path d="M4.7235 8.49957C4.58272 8.15628 4.32047 7.87683 3.98679 7.71456C3.65312 7.55229 3.27138 7.51856 2.91441 7.61979C2.55745 7.72103 2.25026 7.95015 2.05145 8.26344C1.85265 8.57672 1.77615 8.95224 1.83655 9.31833C1.89696 9.68442 2.09004 10.0155 2.37895 10.2483C2.66786 10.4811 3.03238 10.5994 3.40294 10.5806C3.7735 10.5618 4.12417 10.4072 4.38803 10.1463C4.65189 9.88545 4.81046 9.53657 4.8335 9.16624H6.60016V9.08291C6.59357 8.88624 6.61603 8.68968 6.66683 8.49957H4.7235ZM3.3335 9.95957C3.16868 9.95957 3.00756 9.9107 2.87052 9.81913C2.73348 9.72756 2.62667 9.59741 2.5636 9.44514C2.50053 9.29287 2.48402 9.12532 2.51618 8.96367C2.54833 8.80201 2.6277 8.65353 2.74424 8.53698C2.86079 8.42044 3.00927 8.34107 3.17092 8.30892C3.33257 8.27677 3.50013 8.29327 3.6524 8.35634C3.80467 8.41941 3.93482 8.52622 4.02639 8.66326C4.11796 8.80031 4.16683 8.96142 4.16683 9.12624C4.16683 9.34725 4.07903 9.55922 3.92275 9.7155C3.76647 9.87178 3.55451 9.95957 3.3335 9.95957Z" fill="#9094A0"/>
</g>
<defs>
<clipPath id="clip0_1334_2543">
<rect width="12" height="12" fill="white" transform="translate(0 0.5)"/>
</clipPath>
</defs>
</svg>
