<svg width="24" height="24" viewBox="0 0 24 24" fill="none" xmlns="http://www.w3.org/2000/svg">
<path fill-rule="evenodd" clip-rule="evenodd" d="M5.15225 5.15225C5.62088 4.68362 6.38068 4.68362 6.84931 5.15225L12.0008 10.3037L17.1523 5.15225C17.6209 4.68362 18.3807 4.68362 18.8493 5.15225C19.3179 5.62088 19.3179 6.38068 18.8493 6.84931L13.6978 12.0008L18.8493 17.1523C19.3179 17.6209 19.3179 18.3807 18.8493 18.8493C18.3807 19.3179 17.6209 19.3179 17.1523 18.8493L12.0008 13.6978L6.84931 18.8493C6.38068 19.3179 5.62088 19.3179 5.15225 18.8493C4.68362 18.3807 4.68362 17.6209 5.15225 17.1523L10.3037 12.0008L5.15225 6.84931C4.68362 6.38068 4.68362 5.62088 5.15225 5.15225Z" fill="#111827"/>
</svg>
