<svg width="47" height="50" viewBox="0 0 47 50" fill="none" xmlns="http://www.w3.org/2000/svg">
<path d="M19.2681 40.5012C16.9534 39.2318 15.4228 37.2158 14.0694 35.0318C13.7241 34.4812 13.9108 34.0052 14.2748 33.5572C15.0961 32.9878 15.6748 33.0438 16.2721 33.8278C16.7668 34.4812 17.2428 35.1625 17.7561 35.8158C21.2374 40.2585 25.4001 40.5292 29.2454 36.4225C31.2241 34.3038 32.7921 31.9052 33.0441 28.8718C33.1188 27.9478 33.3428 27.0332 33.4641 26.0998C33.5388 25.5492 33.3988 25.2785 32.8014 25.3065C29.3014 25.4558 26.1934 24.2145 23.1694 22.6372C21.4801 21.7598 19.8188 20.8358 18.0081 20.2012C16.6641 19.7252 15.4321 19.7158 14.3494 20.8732C13.6774 21.5918 13.4161 22.3292 13.5934 23.3092C13.9948 25.5398 14.3774 27.7612 14.7694 29.9918C15.0588 31.6252 14.7414 32.0918 13.1641 32.2972C12.3521 32.4185 11.5308 32.5305 10.7188 32.6705C8.74943 33.0158 6.9201 31.8398 6.53743 29.8612C6.06143 27.4625 5.64143 25.0638 5.24943 22.6558C4.94143 20.7518 5.65076 19.4172 7.43343 18.5398C7.8721 18.3252 7.97476 18.0732 8.02143 17.6438C8.98276 9.43049 15.6561 3.42915 23.7854 3.43849C31.8308 3.44782 38.6068 9.54249 39.4841 17.6065C39.5401 18.1572 39.7548 18.3812 40.2308 18.6145C41.8174 19.3705 42.5641 20.8825 42.2654 22.6185C41.8548 24.9892 41.4348 27.3598 40.9961 29.7212C40.6134 31.7745 38.9148 32.9878 36.8241 32.7078C36.4321 32.6518 36.0308 32.6145 35.6574 32.5025C35.0508 32.3158 34.7894 32.5678 34.5188 33.1092C33.0441 36.0678 31.1961 38.7372 28.3214 40.5385C28.0788 40.7998 27.7708 40.9772 27.5188 41.2292C27.4348 41.3038 27.3414 41.3598 27.2388 41.4065C24.9054 42.3958 22.5721 42.3865 20.2294 41.4158C19.7721 41.2478 19.4828 40.9025 19.2681 40.5012Z" fill="#454B54"/>
<path d="M13.1641 32.2878C14.6481 31.7932 14.7507 31.6345 14.4894 30.0385C14.1161 27.8078 13.7334 25.5865 13.3227 23.3652C12.8934 21.0412 14.8441 19.1465 17.1961 19.6598C18.4654 19.9398 19.6227 20.5185 20.7707 21.1065C23.2534 22.3945 25.7081 23.7385 28.4241 24.4945C29.9921 24.9332 31.5787 25.1478 33.2121 25.0265C33.5667 24.9985 33.9587 24.8865 33.8841 25.5118C33.4267 29.1985 32.7267 32.7452 30.2534 35.7785C26.1841 40.7718 21.3121 40.8465 17.3454 35.7785C16.9441 35.2745 16.5614 34.7518 16.2347 34.1918C15.7587 33.3798 15.1521 33.0812 14.2747 33.5478C14.2281 32.8478 14.0134 32.2878 13.1641 32.2878Z" fill="#F6EADD"/>
<path d="M27.4237 41.1548C27.433 41.0708 27.433 40.9868 27.4424 40.9028C27.8717 40.7161 28.3104 40.7534 28.7397 40.8841C31.4277 41.9761 34.1157 43.0681 36.8037 44.1508C37.541 44.4494 38.1384 44.8601 37.7837 45.7468C37.4104 46.6708 36.6637 46.5681 35.889 46.2508C33.873 45.4108 31.8384 44.6081 29.8317 43.7494C29.253 43.4974 28.9357 43.5348 28.5157 44.0854C26.0517 47.3614 21.4224 47.3148 18.9677 43.9921C18.6037 43.5068 18.3517 43.4601 17.829 43.6841C15.7477 44.5614 13.6477 45.3828 11.5664 46.2508C10.801 46.5681 10.1104 46.6148 9.77437 45.7468C9.45703 44.9068 9.94237 44.4308 10.7264 44.1228C13.3864 43.0681 16.037 41.9668 18.6877 40.8748C18.893 40.7908 19.2104 40.8281 19.257 40.4921C19.733 40.4734 19.7984 40.9681 20.1157 41.1548C20.573 41.3881 20.685 41.8641 20.909 42.2654C22.113 44.4401 25.2864 44.5148 26.5837 42.3868C26.8544 41.9668 27.0224 41.4814 27.4237 41.1548Z" fill="#454B54"/>
<path d="M28.7387 40.8935C28.3094 40.9028 27.8707 40.9028 27.4414 40.9121C27.7027 40.7161 27.9454 40.4828 28.3094 40.5295C28.4494 40.6508 28.5987 40.7721 28.7387 40.8935Z" fill="#B4AEA9"/>
<path d="M12.3045 17.0093C13.1445 17.0559 13.6111 16.6546 13.9005 15.8706C16.6911 8.27327 26.4165 7.64793 30.9151 11.8853C33.6125 14.4333 34.9192 17.6813 34.5178 21.4799C34.4152 22.4319 33.9951 22.8239 32.9965 22.8146C30.4298 22.7866 28.0405 22.0959 25.7445 21.0226C23.5325 19.9866 21.4418 18.7173 19.1552 17.8306C16.8498 16.9439 14.6658 16.9253 12.7152 18.8106C12.4445 18.4933 12.1832 18.1853 11.9218 17.8773C11.8658 17.5039 11.9125 17.1866 12.3045 17.0093Z" fill="#BBA664"/>
<path d="M12.3025 17.0094C12.1719 17.2987 12.0505 17.588 11.9199 17.8774C11.8825 17.868 11.8545 17.8587 11.8172 17.8587C10.2025 17.7187 10.2025 17.7187 10.6225 16.0294C12.1439 9.83204 17.8092 5.59471 24.3332 5.79071C30.5025 5.96804 35.9159 10.6534 37.0825 16.832C37.1199 17.0467 37.1385 17.2614 37.1572 17.476C37.1665 17.6534 37.1759 17.868 36.9239 17.8494C36.8119 17.84 36.6439 17.728 36.6065 17.616C36.4665 17.2054 36.3825 16.7854 36.2519 16.3747C33.4332 7.16271 22.1305 3.84004 15.0839 10.1494C13.5812 11.4934 12.5545 13.1547 11.7425 14.984C11.3692 15.8334 11.4719 16.5054 12.3025 17.0094Z" fill="#FDFDFD"/>
<path d="M10.1492 30.4213C9.30925 30.4679 8.87058 29.9919 8.73991 29.2359C8.30124 26.8746 7.89058 24.5133 7.48924 22.1426C7.34924 21.3119 7.73191 20.7799 8.56258 20.5466C10.4759 20.0053 10.5039 20.0239 10.8306 21.9653C11.1946 24.1586 11.6146 26.3333 11.9786 28.5266C12.2866 30.3466 12.5292 29.9639 10.6812 30.3466C10.5039 30.3933 10.3266 30.4026 10.1492 30.4213Z" fill="#FEFEFE"/>
<path d="M37.2722 30.4119C37.0202 30.3839 36.7775 30.3279 36.5255 30.3186C35.7042 30.2812 35.4895 29.8986 35.6295 29.0866C36.1055 26.3612 36.5162 23.6266 36.9269 20.9012C37.0015 20.4346 37.1135 20.1546 37.6735 20.3132C38.1215 20.4439 38.5882 20.4719 39.0455 20.5932C39.8295 20.7986 40.1749 21.3586 40.0442 22.1332C39.6522 24.5039 39.2322 26.8746 38.7935 29.2359C38.6442 30.0386 38.1589 30.5052 37.2722 30.4119Z" fill="#FEFEFE"/>
<path d="M27.4252 41.1548C26.5572 43.5348 25.2785 44.4588 23.1972 44.1788C21.4239 43.9455 20.6492 42.6668 20.1172 41.1548C21.5639 41.5281 22.9825 41.9855 24.5225 41.8361C25.5305 41.7428 26.4359 41.2761 27.4252 41.1548Z" fill="#F5E9DC"/>
</svg>
