<svg width="81" height="83" viewBox="0 0 81 83" fill="none" xmlns="http://www.w3.org/2000/svg">
<path fill-rule="evenodd" clip-rule="evenodd" d="M41 2C63.0916 2 81 19.9086 81 41.9998C81 64.0911 63.0916 81.9997 41 81.9997C18.9089 81.9997 1 64.0911 1 41.9998C1 19.9086 18.9089 2 41 2Z" fill="#BBA664"/>
<path fill-rule="evenodd" clip-rule="evenodd" d="M41 2C63.0916 2 81 19.9086 81 41.9998C81 64.0911 63.0916 81.9997 41 81.9997C18.9089 81.9997 1 64.0911 1 41.9998C1 19.9086 18.9089 2 41 2Z" fill="url(#paint0_linear_60_1076)" style="mix-blend-mode:overlay"/>
<path d="M43 22.1V26.14C50.9 27.12 57 33.84 57 42C57 48.42 53.16 54 47.56 56.56L43 52V62H53L50.56 59.56C56.82 56.14 61 49.52 61 42C61 31.64 53.1 23.1 43 22.1ZM39 22C35.1 22.4 31.4 23.92 28.36 26.42L31.2 29.26C33.4702 27.51 36.1597 26.3859 39 26V22ZM25.4 29.36C22.92 32.4 21.4 36.1 21 40H25C25.38 37.16 26.5 34.46 28.26 32.2L25.4 29.36ZM29 34V38H35V40H33C30.8 40 29 41.8 29 44V50H39V46H33V44H35C37.22 44 39 42.22 39 40V38C39 36.9391 38.5786 35.9217 37.8284 35.1716C37.0783 34.4214 36.0609 34 35 34H29ZM41 34V44H47V50H51V44H53V40H51V34H47V40H45V34H41ZM21 44C21.4 47.9 22.94 51.6 25.44 54.64L28.28 51.8C26.524 49.5312 25.3931 46.8419 25 44H21ZM31.22 54.74L28.36 57.58C31.3988 60.0611 35.0977 61.5977 39 62V58C36.1634 57.6229 33.4781 56.4977 31.22 54.74Z" fill="white"/>
<defs>
<linearGradient id="paint0_linear_60_1076" x1="40.6002" y1="124.799" x2="123" y2="42.3998" gradientUnits="userSpaceOnUse">
<stop stop-color="white" stop-opacity="0.01"/>
<stop offset="1" stop-color="white" stop-opacity="0.5"/>
</linearGradient>
</defs>
</svg>
