<svg width="106" height="134" viewBox="0 0 106 134" fill="none" xmlns="http://www.w3.org/2000/svg">
<circle cx="1.66667" cy="1.66667" r="1.66667" transform="matrix(1 8.74228e-08 8.74228e-08 -1 0.333252 133.667)" fill="#13C296"/>
<circle cx="1.66667" cy="1.66667" r="1.66667" transform="matrix(1 8.74228e-08 8.74228e-08 -1 0.333252 119)" fill="#13C296"/>
<circle cx="1.66667" cy="1.66667" r="1.66667" transform="matrix(1 8.74228e-08 8.74228e-08 -1 0.333252 104.333)" fill="#13C296"/>
<circle cx="1.66667" cy="1.66667" r="1.66667" transform="matrix(1 8.74228e-08 8.74228e-08 -1 0.333252 89.6665)" fill="#13C296"/>
<circle cx="1.66667" cy="1.66667" r="1.66667" transform="matrix(1 8.74228e-08 8.74228e-08 -1 0.333252 74.9998)" fill="#13C296"/>
<circle cx="1.66667" cy="1.66667" r="1.66667" transform="matrix(1 8.74228e-08 8.74228e-08 -1 0.333252 46.6665)" fill="#13C296"/>
<circle cx="1.66667" cy="1.66667" r="1.66667" transform="matrix(1 8.74228e-08 8.74228e-08 -1 0.333252 17.6665)" fill="#13C296"/>
<circle cx="1.66667" cy="1.66667" r="1.66667" transform="matrix(1 8.74228e-08 8.74228e-08 -1 0.333252 60.6665)" fill="#13C296"/>
<circle cx="1.66667" cy="1.66667" r="1.66667" transform="matrix(1 8.74228e-08 8.74228e-08 -1 0.333252 32.3333)" fill="#13C296"/>
<circle cx="1.66667" cy="1.66667" r="1.66667" transform="matrix(1 8.74228e-08 8.74228e-08 -1 0.333252 3.33325)" fill="#13C296"/>
<circle cx="1.66667" cy="1.66667" r="1.66667" transform="matrix(1 8.74228e-08 8.74228e-08 -1 15 133.667)" fill="#13C296"/>
<circle cx="1.66667" cy="1.66667" r="1.66667" transform="matrix(1 8.74228e-08 8.74228e-08 -1 15 119)" fill="#13C296"/>
<circle cx="1.66667" cy="1.66667" r="1.66667" transform="matrix(1 8.74228e-08 8.74228e-08 -1 15 104.333)" fill="#13C296"/>
<circle cx="1.66667" cy="1.66667" r="1.66667" transform="matrix(1 8.74228e-08 8.74228e-08 -1 15 89.6665)" fill="#13C296"/>
<circle cx="1.66667" cy="1.66667" r="1.66667" transform="matrix(1 8.74228e-08 8.74228e-08 -1 14.9998 74.9998)" fill="#13C296"/>
<circle cx="1.66667" cy="1.66667" r="1.66667" transform="matrix(1 8.74228e-08 8.74228e-08 -1 14.9998 46.6665)" fill="#13C296"/>
<circle cx="1.66667" cy="1.66667" r="1.66667" transform="matrix(1 8.74228e-08 8.74228e-08 -1 14.9998 17.6665)" fill="#13C296"/>
<circle cx="1.66667" cy="1.66667" r="1.66667" transform="matrix(1 8.74228e-08 8.74228e-08 -1 14.9998 60.6665)" fill="#13C296"/>
<circle cx="1.66667" cy="1.66667" r="1.66667" transform="matrix(1 8.74228e-08 8.74228e-08 -1 14.9998 32.3333)" fill="#13C296"/>
<circle cx="1.66667" cy="1.66667" r="1.66667" transform="matrix(1 8.74228e-08 8.74228e-08 -1 14.9998 3.33325)" fill="#13C296"/>
<circle cx="1.66667" cy="1.66667" r="1.66667" transform="matrix(1 8.74228e-08 8.74228e-08 -1 29.6665 133.667)" fill="#13C296"/>
<circle cx="1.66667" cy="1.66667" r="1.66667" transform="matrix(1 8.74228e-08 8.74228e-08 -1 73.3333 133.667)" fill="#13C296"/>
<circle cx="1.66667" cy="1.66667" r="1.66667" transform="matrix(1 8.74228e-08 8.74228e-08 -1 29.6665 119)" fill="#13C296"/>
<circle cx="1.66667" cy="1.66667" r="1.66667" transform="matrix(1 8.74228e-08 8.74228e-08 -1 73.3333 119)" fill="#13C296"/>
<circle cx="1.66667" cy="1.66667" r="1.66667" transform="matrix(1 8.74228e-08 8.74228e-08 -1 29.6665 104.333)" fill="#13C296"/>
<circle cx="1.66667" cy="1.66667" r="1.66667" transform="matrix(1 8.74228e-08 8.74228e-08 -1 73.3333 104.333)" fill="#13C296"/>
<circle cx="1.66667" cy="1.66667" r="1.66667" transform="matrix(1 8.74228e-08 8.74228e-08 -1 29.6665 89.6665)" fill="#13C296"/>
<circle cx="1.66667" cy="1.66667" r="1.66667" transform="matrix(1 8.74228e-08 8.74228e-08 -1 73.3333 89.6665)" fill="#13C296"/>
<circle cx="1.66667" cy="1.66667" r="1.66667" transform="matrix(1 8.74228e-08 8.74228e-08 -1 29.6667 74.9998)" fill="#13C296"/>
<circle cx="1.66667" cy="1.66667" r="1.66667" transform="matrix(1 8.74228e-08 8.74228e-08 -1 73.3335 74.9998)" fill="#13C296"/>
<circle cx="1.66667" cy="1.66667" r="1.66667" transform="matrix(1 8.74228e-08 8.74228e-08 -1 29.6667 46.6665)" fill="#13C296"/>
<circle cx="1.66667" cy="1.66667" r="1.66667" transform="matrix(1 8.74228e-08 8.74228e-08 -1 73.3335 46.6665)" fill="#13C296"/>
<circle cx="1.66667" cy="1.66667" r="1.66667" transform="matrix(1 8.74228e-08 8.74228e-08 -1 29.6667 17.6665)" fill="#13C296"/>
<circle cx="1.66667" cy="1.66667" r="1.66667" transform="matrix(1 8.74228e-08 8.74228e-08 -1 73.3335 17.6665)" fill="#13C296"/>
<circle cx="1.66667" cy="1.66667" r="1.66667" transform="matrix(1 8.74228e-08 8.74228e-08 -1 29.6667 60.6665)" fill="#13C296"/>
<circle cx="1.66667" cy="1.66667" r="1.66667" transform="matrix(1 8.74228e-08 8.74228e-08 -1 73.3335 60.6665)" fill="#13C296"/>
<circle cx="1.66667" cy="1.66667" r="1.66667" transform="matrix(1 8.74228e-08 8.74228e-08 -1 29.6667 32.3333)" fill="#13C296"/>
<circle cx="1.66667" cy="1.66667" r="1.66667" transform="matrix(1 8.74228e-08 8.74228e-08 -1 73.3335 32.3333)" fill="#13C296"/>
<circle cx="1.66667" cy="1.66667" r="1.66667" transform="matrix(1 8.74228e-08 8.74228e-08 -1 29.6667 3.33325)" fill="#13C296"/>
<circle cx="1.66667" cy="1.66667" r="1.66667" transform="matrix(1 8.74228e-08 8.74228e-08 -1 73.3335 3.33325)" fill="#13C296"/>
<circle cx="1.66667" cy="1.66667" r="1.66667" transform="matrix(1 8.74228e-08 8.74228e-08 -1 44.3333 133.667)" fill="#13C296"/>
<circle cx="1.66667" cy="1.66667" r="1.66667" transform="matrix(1 8.74228e-08 8.74228e-08 -1 88 133.667)" fill="#13C296"/>
<circle cx="1.66667" cy="1.66667" r="1.66667" transform="matrix(1 8.74228e-08 8.74228e-08 -1 44.3333 119)" fill="#13C296"/>
<circle cx="1.66667" cy="1.66667" r="1.66667" transform="matrix(1 8.74228e-08 8.74228e-08 -1 88 119)" fill="#13C296"/>
<circle cx="1.66667" cy="1.66667" r="1.66667" transform="matrix(1 8.74228e-08 8.74228e-08 -1 44.3333 104.333)" fill="#13C296"/>
<circle cx="1.66667" cy="1.66667" r="1.66667" transform="matrix(1 8.74228e-08 8.74228e-08 -1 88 104.333)" fill="#13C296"/>
<circle cx="1.66667" cy="1.66667" r="1.66667" transform="matrix(1 8.74228e-08 8.74228e-08 -1 44.3333 89.6665)" fill="#13C296"/>
<circle cx="1.66667" cy="1.66667" r="1.66667" transform="matrix(1 8.74228e-08 8.74228e-08 -1 88 89.6665)" fill="#13C296"/>
<circle cx="1.66667" cy="1.66667" r="1.66667" transform="matrix(1 8.74228e-08 8.74228e-08 -1 44.3333 74.9998)" fill="#13C296"/>
<circle cx="1.66667" cy="1.66667" r="1.66667" transform="matrix(1 8.74228e-08 8.74228e-08 -1 88 74.9998)" fill="#13C296"/>
<circle cx="1.66667" cy="1.66667" r="1.66667" transform="matrix(1 8.74228e-08 8.74228e-08 -1 44.3333 46.6665)" fill="#13C296"/>
<circle cx="1.66667" cy="1.66667" r="1.66667" transform="matrix(1 8.74228e-08 8.74228e-08 -1 88 46.6665)" fill="#13C296"/>
<circle cx="1.66667" cy="1.66667" r="1.66667" transform="matrix(1 8.74228e-08 8.74228e-08 -1 44.3333 17.6665)" fill="#13C296"/>
<circle cx="1.66667" cy="1.66667" r="1.66667" transform="matrix(1 8.74228e-08 8.74228e-08 -1 88 17.6665)" fill="#13C296"/>
<circle cx="1.66667" cy="1.66667" r="1.66667" transform="matrix(1 8.74228e-08 8.74228e-08 -1 44.3333 60.6665)" fill="#13C296"/>
<circle cx="1.66667" cy="1.66667" r="1.66667" transform="matrix(1 8.74228e-08 8.74228e-08 -1 88 60.6665)" fill="#13C296"/>
<circle cx="1.66667" cy="1.66667" r="1.66667" transform="matrix(1 8.74228e-08 8.74228e-08 -1 44.3333 32.3333)" fill="#13C296"/>
<circle cx="1.66667" cy="1.66667" r="1.66667" transform="matrix(1 8.74228e-08 8.74228e-08 -1 88 32.3333)" fill="#13C296"/>
<circle cx="1.66667" cy="1.66667" r="1.66667" transform="matrix(1 8.74228e-08 8.74228e-08 -1 44.3333 3.33325)" fill="#13C296"/>
<circle cx="1.66667" cy="1.66667" r="1.66667" transform="matrix(1 8.74228e-08 8.74228e-08 -1 88 3.33325)" fill="#13C296"/>
<circle cx="1.66667" cy="1.66667" r="1.66667" transform="matrix(1 8.74228e-08 8.74228e-08 -1 59 133.667)" fill="#13C296"/>
<circle cx="1.66667" cy="1.66667" r="1.66667" transform="matrix(1 8.74228e-08 8.74228e-08 -1 102.667 133.667)" fill="#13C296"/>
<circle cx="1.66667" cy="1.66667" r="1.66667" transform="matrix(1 8.74228e-08 8.74228e-08 -1 59 119)" fill="#13C296"/>
<circle cx="1.66667" cy="1.66667" r="1.66667" transform="matrix(1 8.74228e-08 8.74228e-08 -1 102.667 119)" fill="#13C296"/>
<circle cx="1.66667" cy="1.66667" r="1.66667" transform="matrix(1 8.74228e-08 8.74228e-08 -1 59 104.333)" fill="#13C296"/>
<circle cx="1.66667" cy="1.66667" r="1.66667" transform="matrix(1 8.74228e-08 8.74228e-08 -1 102.667 104.333)" fill="#13C296"/>
<circle cx="1.66667" cy="1.66667" r="1.66667" transform="matrix(1 8.74228e-08 8.74228e-08 -1 59 89.6665)" fill="#13C296"/>
<circle cx="1.66667" cy="1.66667" r="1.66667" transform="matrix(1 8.74228e-08 8.74228e-08 -1 102.667 89.6665)" fill="#13C296"/>
<circle cx="1.66667" cy="1.66667" r="1.66667" transform="matrix(1 8.74228e-08 8.74228e-08 -1 58.9998 74.9998)" fill="#13C296"/>
<circle cx="1.66667" cy="1.66667" r="1.66667" transform="matrix(1 8.74228e-08 8.74228e-08 -1 102.667 74.9998)" fill="#13C296"/>
<circle cx="1.66667" cy="1.66667" r="1.66667" transform="matrix(1 8.74228e-08 8.74228e-08 -1 58.9998 46.6665)" fill="#13C296"/>
<circle cx="1.66667" cy="1.66667" r="1.66667" transform="matrix(1 8.74228e-08 8.74228e-08 -1 102.667 46.6665)" fill="#13C296"/>
<circle cx="1.66667" cy="1.66667" r="1.66667" transform="matrix(1 8.74228e-08 8.74228e-08 -1 58.9998 17.6665)" fill="#13C296"/>
<circle cx="1.66667" cy="1.66667" r="1.66667" transform="matrix(1 8.74228e-08 8.74228e-08 -1 102.667 17.6665)" fill="#13C296"/>
<circle cx="1.66667" cy="1.66667" r="1.66667" transform="matrix(1 8.74228e-08 8.74228e-08 -1 58.9998 60.6665)" fill="#13C296"/>
<circle cx="1.66667" cy="1.66667" r="1.66667" transform="matrix(1 8.74228e-08 8.74228e-08 -1 102.667 60.6665)" fill="#13C296"/>
<circle cx="1.66667" cy="1.66667" r="1.66667" transform="matrix(1 8.74228e-08 8.74228e-08 -1 58.9998 32.3333)" fill="#13C296"/>
<circle cx="1.66667" cy="1.66667" r="1.66667" transform="matrix(1 8.74228e-08 8.74228e-08 -1 102.667 32.3333)" fill="#13C296"/>
<circle cx="1.66667" cy="1.66667" r="1.66667" transform="matrix(1 8.74228e-08 8.74228e-08 -1 58.9998 3.33325)" fill="#13C296"/>
<circle cx="1.66667" cy="1.66667" r="1.66667" transform="matrix(1 8.74228e-08 8.74228e-08 -1 102.667 3.33325)" fill="#13C296"/>
</svg>
