<svg width="20" height="20" viewBox="0 0 20 20" fill="none" xmlns="http://www.w3.org/2000/svg">
<path d="M12.5108 4.16732C13.1865 4.16732 13.5795 4.93103 13.1868 5.48083L10.7887 8.83818C10.292 9.53357 10.292 10.4677 10.7887 11.1631L13.1868 14.5205C13.5795 15.0703 13.1865 15.834 12.5108 15.834C12.2425 15.834 11.9908 15.7044 11.8349 15.4861L8.74701 11.1631C8.2503 10.4677 8.2503 9.53357 8.74701 8.83817L11.8349 4.51518C11.9908 4.29687 12.2425 4.16732 12.5108 4.16732ZM7.55249 4.16732C8.22815 4.16732 8.62116 4.93103 8.22844 5.48083L5.83034 8.83817C5.33363 9.53357 5.33363 10.4677 5.83034 11.1631L8.22844 14.5205C8.62116 15.0703 8.22814 15.834 7.55249 15.834C7.28422 15.834 7.03246 15.7044 6.87653 15.4861L3.78867 11.1631C3.29196 10.4677 3.29196 9.53357 3.78867 8.83817L6.87653 4.51518C7.03246 4.29687 7.28422 4.16732 7.55249 4.16732Z" fill="#BBA664"/>
</svg>
