<svg width="70" height="71" viewBox="0 0 70 71" fill="none" xmlns="http://www.w3.org/2000/svg">
<g clip-path="url(#clip0_60_1424)">
<rect opacity="0.05" y="0.833008" width="70" height="70" rx="5" fill="#BBA664"/>
<path d="M47.0016 24.6328H23.0016C21.3016 24.6328 19.8516 26.0328 19.8516 27.7828V43.9828C19.8516 45.6828 21.2516 47.1328 23.0016 47.1328H47.0016C48.7016 47.1328 50.1516 45.7328 50.1516 43.9828V27.7328C50.1516 26.0328 48.7016 24.6328 47.0016 24.6328ZM47.0016 26.8828C47.0516 26.8828 47.1016 26.8828 47.1516 26.8828L35.0016 34.6828L22.8516 26.8828C22.9016 26.8828 22.9516 26.8828 23.0016 26.8828H47.0016ZM47.0016 44.7828H23.0016C22.5016 44.7828 22.1016 44.3828 22.1016 43.8828V29.0828L33.8016 36.5828C34.1516 36.8328 34.5516 36.9328 34.9516 36.9328C35.3516 36.9328 35.7516 36.8328 36.1016 36.5828L47.8016 29.0828V43.9328C47.9016 44.4328 47.5016 44.7828 47.0016 44.7828Z" fill="#BBA664"/>
</g>
<defs>
<clipPath id="clip0_60_1424">
<rect width="70" height="70" fill="white" transform="translate(0 0.833008)"/>
</clipPath>
</defs>
</svg>
