<svg width="41" height="45" viewBox="0 0 41 45" fill="none" xmlns="http://www.w3.org/2000/svg">
<g clip-path="url(#clip0_128_1559)">
<g clip-path="url(#clip1_128_1559)">
<path d="M0.744086 19.2275C0.77328 19.6141 0.884748 19.8919 1.36866 19.8574C1.85258 19.8229 2.34623 19.8397 2.83545 19.8415C4.38274 19.8494 4.9967 20.7217 4.42786 22.169C4.22527 22.6821 3.88025 23.1377 3.6175 23.6287C3.02211 24.7425 3.27248 25.6944 4.34381 26.4385C5.22849 27.0533 6.50507 26.9471 7.19246 26.1076C8.28591 24.7717 9.1175 23.289 9.3944 21.5498C9.65273 19.9211 10.2649 18.5366 11.9131 17.8554C13.3913 17.2441 14.698 17.6183 15.6888 18.9435C16.3966 19.8875 16.2488 21.609 15.3146 22.6238C14.6069 23.3934 13.8178 24.0888 13.087 24.8399C11.9546 26.0032 12.0254 26.6242 13.3993 27.424C16.5417 29.2491 16.7938 31.8571 15.2315 34.849C13.916 37.3659 11.7335 38.7212 8.88218 38.9592C8.71586 38.9734 8.55573 39.0689 8.39296 39.1255C8.47434 38.4647 8.15852 38.0436 7.65602 37.6287C1.9322 32.9036 -0.269748 26.8003 0.6105 19.5044C0.622001 19.408 0.698083 19.3195 0.744086 19.2275Z" fill="#BBA664"/>
<path d="M26.3888 4.40316C26.8214 4.31469 27.124 4.01921 27.4336 3.73523C28.3245 3.95994 29.1145 4.42616 29.8753 4.8968C30.5698 5.32587 30.5724 5.03304 30.6008 4.44827C30.6618 3.17346 30.384 1.88273 30.7529 0.62207C31.1546 0.874202 31.082 1.29265 31.0785 1.65979C31.0404 6.3052 31.5571 5.11886 28.4997 8.23821C28.2458 8.47754 28.006 8.73127 27.7813 8.99814C27.4646 9.40597 27.2054 9.866 27.6521 10.3057C28.0989 10.7454 28.5492 10.5056 28.9447 10.1482C29.2808 9.84388 29.5754 9.49621 29.9328 9.21488C30.4451 8.81236 30.7547 8.93267 30.8423 9.58202C30.9033 10.0332 30.8741 10.4879 30.8865 10.9409C30.9077 11.7256 31.2457 12.3475 31.8251 12.8544C32.2117 13.1924 32.6505 13.494 33.1309 13.1198C33.6316 12.7323 33.437 12.2263 33.1176 11.822C32.5647 11.1222 32.5913 10.3287 32.6806 9.52186C32.7461 8.9371 33.0531 8.81413 33.5334 9.168C33.6212 9.22527 33.7015 9.29334 33.7723 9.37059C34.4137 10.1668 35.2364 10.6215 36.2609 10.6976L37.3207 12.574C36.9668 13.563 37.3207 14.4247 37.6746 15.3474C37.9913 16.1764 38.6477 17.0035 38.17 18.0014C36.1936 17.2424 34.0678 17.552 32.0437 17.1389C32.0737 16.9363 32.0693 16.7204 32.1401 16.5338C32.363 15.9499 32.279 15.4456 31.7729 15.067C31.1908 14.6326 30.6821 14.8803 30.2106 15.2961C29.7382 15.0705 29.5507 14.5884 29.2516 14.2115C28.5324 13.3012 28.2732 13.3083 27.7158 14.3557C27.2072 15.312 26.7427 16.2931 26.104 17.1743C25.8138 17.5715 25.5165 17.9563 25.1193 18.2545C23.887 19.1781 22.6423 19.1082 21.5382 18.0289C20.1882 16.7089 19.6406 15.0077 19.5167 13.2048C19.4282 11.9291 20.1103 10.9382 21.2745 10.3296C22.0593 9.9182 22.9209 9.7563 23.7631 9.52717C25.4935 9.05653 26.0987 8.23909 26.1447 6.44144C26.1615 5.76024 25.9509 5.03923 26.3888 4.40316Z" fill="#BBA664"/>
<path d="M32.0399 17.3017C31.2592 19.8127 30.3437 22.2798 29.2974 24.6922C28.7117 26.6456 27.7687 28.3999 26.3912 29.9118C23.7125 33.6946 20.632 37.1033 16.9412 39.9272C14.5446 41.7611 12.0021 43.3385 9.01718 44.0533C8.26698 44.2302 7.50528 44.3541 6.73561 44.324C3.81089 44.2099 1.85046 42.3202 1.64698 39.3866C1.58683 38.5196 1.49482 37.5969 1.7151 36.7813C2.06101 35.5029 1.64698 34.5625 1.00737 33.4974C-6.76359 20.49 1.31169 3.52028 16.2786 1.36079C19.6845 0.868917 23.0251 1.11486 26.3054 2.20477C27.1901 2.49671 27.597 2.97267 27.4307 3.89715C27.2989 4.48457 26.8875 4.71193 26.3311 4.75528C24.7387 4.38283 23.1817 3.89538 21.5344 3.71048C17.9957 3.31326 14.626 3.9113 11.4491 5.42497C5.59439 8.21788 2.11144 12.9013 0.799468 19.2258C-0.192248 25.5061 1.363 31.0106 5.78194 35.6409C6.40563 36.2947 7.02667 36.9564 7.74945 37.5076C8.26698 37.9021 8.49434 38.4099 8.37756 39.0593C7.73795 40.2598 7.16999 40.4013 6.05088 39.6688C5.37764 39.2265 4.87957 38.5842 4.23996 38.0676C3.56849 39.9873 4.87603 41.8027 6.9152 41.8133C8.15374 41.8195 9.32947 41.4674 10.4539 40.9578C13.3485 39.6458 15.8743 37.8004 18.1567 35.6055C20.4569 33.3983 22.6332 31.0937 24.3282 28.3751C24.9713 27.4188 25.595 26.451 26.0604 25.3902C27.6413 22.4912 28.7613 19.4081 29.7008 16.2542C29.8016 15.9189 29.8937 15.5819 30.1122 15.2953C30.7173 14.6698 31.3719 14.6114 32.0337 15.1794C32.6468 15.7057 32.6335 16.3657 32.0399 17.3017Z" fill="#444B54"/>
<path d="M38.1667 18.1649C38.0358 16.9326 37.5634 15.802 37.0432 14.7032C36.684 13.9442 36.6548 13.3134 37.3148 12.7357C38.2278 12.5305 38.709 12.9498 39.0841 13.7699C44.9619 26.5092 36.6177 41.8361 22.7283 43.8071C21.7598 43.9339 20.7854 44.0101 19.8089 44.0354C19.0676 44.0637 18.4465 43.8885 18.4129 43.01C18.3766 42.0811 18.9871 41.8697 19.7895 41.8432C25.4514 41.653 30.2516 39.5244 33.9646 35.2311C38.1889 30.3469 39.5504 24.6628 38.2729 18.341C38.2479 18.2766 38.212 18.2171 38.1667 18.1649Z" fill="#444B54"/>
<path d="M36.2563 10.8692C35.5777 11.2699 34.9921 11.1284 34.4869 10.5604C34.0543 10.0774 33.6253 9.58727 33.0715 9.19271C33.006 10.2614 32.599 11.2841 33.5899 12.1272C34.0127 12.4872 33.9216 13.11 33.4864 13.532C33.0511 13.954 32.5247 13.9673 32.062 13.6037C31.2225 12.9446 30.5024 12.2147 30.6678 10.9868C30.7421 10.441 30.6802 9.87745 30.6802 9.21748C29.9441 9.53331 29.5717 10.126 29.0949 10.5799C28.5384 11.1107 27.9519 11.3265 27.3565 10.7444C26.7452 10.1464 27.0026 9.54392 27.5272 9.01401C28.3889 8.14968 29.2329 7.26766 30.1237 6.4343C30.5979 5.99197 30.7819 5.49921 30.7669 4.86224C30.7359 3.50339 30.7536 2.14365 30.751 0.783907C30.9978 0.194716 31.4277 -0.115804 32.07 0.0416675C32.7733 0.213294 32.929 0.749405 32.9255 1.41114C32.9184 2.87792 32.5548 4.50749 33.0741 5.76461C33.5934 7.02173 34.9921 7.92497 36.0404 8.94942C36.6623 9.55454 36.8349 10.1543 36.2563 10.8692Z" fill="#444B54"/>
<path d="M26.3958 29.9132L29.3019 24.6936C30.145 24.3822 30.9783 24.0398 31.8338 23.7673C32.6238 23.517 33.4262 23.5019 34.0995 24.092C34.7382 24.6458 34.9965 25.3049 34.594 26.1347C33.614 28.1966 31.9379 29.8466 29.861 30.7943C28.5464 31.4056 27.4618 30.5705 26.3958 29.9132Z" fill="#BBA664"/>
<path d="M24.1984 28.4644C23.8729 28.0221 23.4978 27.5984 23.2333 27.118C22.7193 26.1846 23.1899 25.3601 24.263 25.3371C24.8062 25.3247 25.3538 25.4778 25.8988 25.5565C25.4485 26.5894 24.8777 27.5655 24.1984 28.4644Z" fill="#BBA664"/>
</g>
</g>
<defs>
<clipPath id="clip0_128_1559">
<rect width="43" height="44.33" fill="white" transform="translate(-2)"/>
</clipPath>
<clipPath id="clip1_128_1559">
<rect width="42.9897" height="44.33" fill="white" transform="translate(-1.99487)"/>
</clipPath>
</defs>
</svg>
