<svg width="40" height="37" viewBox="0 0 40 37" fill="none" xmlns="http://www.w3.org/2000/svg">
<path d="M20.99 2.64396C12.782 2.65296 6.698 8.00796 5.735 15.235C5.123 19.816 6.536 23.749 9.614 27.133C9.695 27.223 9.776 27.295 9.857 27.385C10.298 27.853 10.424 28.357 9.911 28.825C9.425 29.275 8.948 29.086 8.534 28.672C6.995 27.133 5.807 25.351 4.979 23.353C2.459 17.287 3.845 10.204 8.525 5.58696C11.414 2.73396 14.897 1.14996 18.983 0.861959C27.029 0.294959 34.301 5.78496 36.002 13.759C36.623 16.639 36.452 19.519 35.48 22.327C35.282 22.903 35.021 23.479 34.274 23.245C33.5 23.011 33.545 22.399 33.743 21.751C35.381 16.414 34.418 11.572 30.719 7.40496C27.911 4.21896 24.257 2.70696 20.99 2.64396Z" fill="#BBA664"/>
<path d="M37.19 31.489C35.588 32.416 34.121 33.28 32.537 33.91C21.665 38.203 11.369 37.132 1.67603 30.58C0.686034 29.914 0.452034 29.383 0.893034 28.87C1.60403 28.06 2.17103 28.699 2.76503 29.095C13.277 35.998 24.068 36.484 35.147 30.526C35.444 30.364 35.777 30.247 36.011 29.878C35.363 29.743 34.751 29.626 34.148 29.5C33.581 29.383 33.248 29.023 33.347 28.456C33.437 27.889 33.86 27.619 34.436 27.718C35.84 27.952 37.235 28.204 38.63 28.483C39.242 28.609 39.494 29.059 39.395 29.662C39.161 31.066 38.909 32.461 38.63 33.856C38.513 34.423 38.108 34.693 37.523 34.558C36.947 34.423 36.731 34 36.821 33.433C36.92 32.821 37.046 32.236 37.19 31.489Z" fill="#444B54"/>
<path d="M20.9341 14.5149C21.6091 16.6299 20.4391 18.4209 18.5131 19.9599C17.6131 20.6799 16.8571 21.5799 16.0381 22.4079C15.5701 22.8849 15.0571 23.2179 14.4811 22.6239C13.9501 22.0659 14.2651 21.5799 14.7151 21.1299C16.0111 19.8429 17.2801 18.5379 18.6031 17.2689C19.0171 16.8729 19.1701 16.4589 19.1611 15.8919C19.1341 14.3259 19.1611 12.7599 19.1431 11.1939C19.1341 10.5459 19.3681 10.0599 20.0341 10.0509C20.7001 10.0419 20.9521 10.5189 20.9431 11.1759C20.9161 12.1299 20.9341 13.0929 20.9341 14.5149Z" fill="#BBA664"/>
</svg>
