<svg width="70" height="71" viewBox="0 0 70 71" fill="none" xmlns="http://www.w3.org/2000/svg">
<g clip-path="url(#clip0_60_1408)">
<rect opacity="0.05" y="0.833252" width="70" height="70" rx="5" fill="#BBA664"/>
<path d="M48.4484 29.5333L36.8984 21.4333C35.7484 20.6333 34.2484 20.6333 33.0984 21.4333L21.5484 29.5333C20.6484 30.1333 20.1484 31.1833 20.1484 32.2333V47.5833C20.1484 49.3832 21.6484 50.8832 23.4484 50.8832H46.5984C48.3984 50.8832 49.8984 49.3832 49.8984 47.5833V32.2333C49.8984 31.1333 49.3484 30.1333 48.4484 29.5333ZM39.5484 48.5833H30.4484V42.8333C30.4484 42.4833 30.5984 42.1833 30.8984 41.9832L34.3984 39.5333C34.7484 39.2833 35.2484 39.2833 35.5984 39.5333L39.0984 41.9832C39.3984 42.1833 39.5484 42.4833 39.5484 42.8333V48.5833ZM47.6484 47.5333C47.6484 48.1333 47.1984 48.5833 46.5984 48.5833H41.7984V42.8333C41.7984 41.7833 41.2984 40.7332 40.3984 40.1332L36.8984 37.6833C35.7484 36.8833 34.2484 36.8833 33.0984 37.6833L29.5984 40.1332C28.6984 40.7332 28.1984 41.7833 28.1984 42.8333V48.5833H23.3984C22.7984 48.5833 22.3484 48.1333 22.3484 47.5333V32.2333C22.3484 31.8833 22.4984 31.5833 22.7984 31.3833L34.3984 23.2333C34.5984 23.0833 34.7984 23.0333 34.9984 23.0333C35.1984 23.0333 35.3984 23.0833 35.5984 23.2333L47.1984 31.3333C47.4984 31.5333 47.6484 31.8333 47.6484 32.1833V47.5333Z" fill="#BBA664"/>
</g>
<defs>
<clipPath id="clip0_60_1408">
<rect width="70" height="70" fill="white" transform="translate(0 0.833252)"/>
</clipPath>
</defs>
</svg>
