<svg width="10" height="12" viewBox="0 0 10 12" fill="none" xmlns="http://www.w3.org/2000/svg">
<path d="M9.11873 2.08643C8.1921 0.76057 6.72353 0 5.08986 0C3.4562 0 1.98763 0.76057 1.061 2.08643C0.138915 3.40559 -0.0739962 5.07567 0.490323 6.55118C0.641265 6.95412 0.881202 7.34559 1.20177 7.71244L4.76676 11.8523C4.84739 11.946 4.96552 12 5.08986 12C5.21421 12 5.33234 11.946 5.41297 11.8523L8.97696 7.71356C9.29895 7.34461 9.53858 6.95356 9.68827 6.55385C10.2537 5.07567 10.0408 3.40559 9.11873 2.08643ZM8.89352 6.25999C8.77809 6.56838 8.58964 6.87328 8.33373 7.16655C8.33301 7.16726 8.3323 7.16796 8.33173 7.1688L5.08986 10.9333L1.846 7.16644C1.59023 6.87342 1.40178 6.56855 1.28522 6.2572C0.818521 5.03693 0.995635 3.65609 1.75914 2.56364C2.52504 1.4677 3.73912 0.839156 5.08986 0.839156C6.44059 0.839156 7.65452 1.46768 8.42045 2.56364C9.18409 3.65609 9.36135 5.03693 8.89352 6.25999Z" fill="#9094A0"/>
<path d="M5.08955 2.49072C3.77913 2.49072 2.71289 3.54471 2.71289 4.84038C2.71289 6.13605 3.77899 7.19003 5.08955 7.19003C6.40012 7.19003 7.46622 6.13605 7.46622 4.84038C7.46622 3.54485 6.39998 2.49072 5.08955 2.49072ZM5.08955 6.35086C4.24711 6.35086 3.56169 5.67323 3.56169 4.84036C3.56169 4.00748 4.24711 3.32986 5.08955 3.32986C5.932 3.32986 6.61742 4.00748 6.61742 4.84036C6.61742 5.67323 5.932 6.35086 5.08955 6.35086Z" fill="#9094A0"/>
</svg>
