<svg width="81" height="83" viewBox="0 0 81 83" fill="none" xmlns="http://www.w3.org/2000/svg">
<path fill-rule="evenodd" clip-rule="evenodd" d="M41 2C63.0916 2 81 19.9086 81 41.9998C81 64.0911 63.0916 81.9997 41 81.9997C18.9089 81.9997 1 64.0911 1 41.9998C1 19.9086 18.9089 2 41 2Z" fill="#BBA664"/>
<path fill-rule="evenodd" clip-rule="evenodd" d="M41 2C63.0916 2 81 19.9086 81 41.9998C81 64.0911 63.0916 81.9997 41 81.9997C18.9089 81.9997 1 64.0911 1 41.9998C1 19.9086 18.9089 2 41 2Z" fill="url(#paint0_linear_60_1104)" style="mix-blend-mode:overlay"/>
<path fill-rule="evenodd" clip-rule="evenodd" d="M58.848 41.5H53.46C50.612 41.5 48.498 43.618 48.498 46C48.498 48.382 50.612 50.5 53.458 50.5H58.894C59.306 50.474 59.484 50.196 59.498 50.028V41.972C59.484 41.804 59.306 41.526 58.894 41.502L58.848 41.5ZM58.7 38.5C58.832 38.5 58.96 38.5 59.08 38.508C60.82 38.614 62.362 39.928 62.492 41.764C62.5 41.884 62.5 42.014 62.5 42.134V49.866C62.5 49.986 62.5 50.116 62.492 50.236C62.362 52.072 60.82 53.386 59.078 53.494C58.96 53.5 58.832 53.5 58.698 53.5H53.462C49.172 53.5 45.5 50.244 45.5 46C45.5 41.756 49.172 38.5 53.46 38.5H58.666H58.7Z" fill="white"/>
<path d="M55 46C55 46.5304 54.7893 47.0391 54.4142 47.4142C54.0391 47.7893 53.5304 48 53 48C52.4696 48 51.9609 47.7893 51.5858 47.4142C51.2107 47.0391 51 46.5304 51 46C51 45.4696 51.2107 44.9609 51.5858 44.5858C51.9609 44.2107 52.4696 44 53 44C53.5304 44 54.0391 44.2107 54.4142 44.5858C54.7893 44.9609 55 45.4696 55 46Z" fill="white"/>
<path fill-rule="evenodd" clip-rule="evenodd" d="M58.7 38.5C59.2738 38.4783 59.8449 38.5877 60.37 38.82C60.156 35.608 59.566 33.132 57.718 31.282C56.22 29.786 54.322 29.122 51.978 28.806L51.894 28.796C51.8731 28.7801 51.8517 28.7648 51.83 28.75L44.358 23.796C43.0619 22.9501 41.5477 22.4998 40 22.4998C38.4523 22.4998 36.9381 22.9501 35.642 23.796L28.172 28.75C28.1496 28.7648 28.1276 28.7801 28.106 28.796L28.022 28.806C25.678 29.122 23.78 29.786 22.282 31.282C20.786 32.78 20.122 34.678 19.806 37.022C19.5 39.302 19.5 42.212 19.5 45.888V46.112C19.5 49.788 19.5 52.7 19.806 54.978C20.122 57.322 20.786 59.22 22.282 60.718C23.78 62.214 25.678 62.878 28.022 63.194C30.302 63.5 33.212 63.5 36.888 63.5H43.112C46.788 63.5 49.7 63.5 51.978 63.194C54.322 62.878 56.22 62.214 57.718 60.718C59.566 58.868 60.156 56.392 60.37 53.178C59.966 53.358 59.53 53.466 59.078 53.494C58.96 53.5 58.832 53.5 58.698 53.5H57.336C57.108 56.184 56.594 57.6 55.596 58.596C54.75 59.442 53.59 59.95 51.578 60.22C49.524 60.496 46.814 60.5 43 60.5H37C33.186 60.5 30.478 60.496 28.42 60.22C26.41 59.95 25.25 59.442 24.404 58.596C23.558 57.75 23.05 56.59 22.78 54.578C22.504 52.524 22.5 49.814 22.5 46C22.5 42.186 22.504 39.478 22.78 37.42C23.05 35.41 23.558 34.25 24.404 33.404C25.25 32.558 26.41 32.05 28.422 31.78C30.478 31.504 33.186 31.5 37 31.5H43C46.814 31.5 49.524 31.504 51.58 31.78C53.59 32.05 54.75 32.558 55.596 33.404C56.594 34.4 57.108 35.818 57.336 38.5H58.666H58.7ZM36.888 28.5H43.112C44.146 28.5 45.118 28.5 46.032 28.506L42.7 26.296C41.1 25.236 38.9 25.236 37.3 26.296L33.966 28.506C34.882 28.5 35.854 28.5 36.886 28.5" fill="white"/>
<path d="M29 36.5C28.6022 36.5 28.2206 36.658 27.9393 36.9393C27.658 37.2206 27.5 37.6022 27.5 38C27.5 38.3978 27.658 38.7794 27.9393 39.0607C28.2206 39.342 28.6022 39.5 29 39.5H37C37.3978 39.5 37.7794 39.342 38.0607 39.0607C38.342 38.7794 38.5 38.3978 38.5 38C38.5 37.6022 38.342 37.2206 38.0607 36.9393C37.7794 36.658 37.3978 36.5 37 36.5H29Z" fill="white"/>
<path d="M55 46C55 46.5304 54.7893 47.0391 54.4142 47.4142C54.0391 47.7893 53.5304 48 53 48C52.4696 48 51.9609 47.7893 51.5858 47.4142C51.2107 47.0391 51 46.5304 51 46C51 45.4696 51.2107 44.9609 51.5858 44.5858C51.9609 44.2107 52.4696 44 53 44C53.5304 44 54.0391 44.2107 54.4142 44.5858C54.7893 44.9609 55 45.4696 55 46Z" fill="white"/>
<defs>
<linearGradient id="paint0_linear_60_1104" x1="40.6002" y1="124.799" x2="123" y2="42.3998" gradientUnits="userSpaceOnUse">
<stop stop-color="white" stop-opacity="0.01"/>
<stop offset="1" stop-color="white" stop-opacity="0.5"/>
</linearGradient>
</defs>
</svg>
