<svg width="1232" height="270" viewBox="0 0 1232 270" fill="none" xmlns="http://www.w3.org/2000/svg">
<path d="M1208 0H24C10.7452 0 0 10.7452 0 24V244.871C0 258.125 10.7452 268.871 24 268.871H1208C1221.25 268.871 1232 258.125 1232 244.871V24C1232 10.7452 1221.25 0 1208 0Z" fill="#BBA664"/>
<path d="M1210.77 234.083C1210.77 239.606 1206.3 244.083 1200.77 244.083H30.2109C24.6881 244.083 20.2109 239.606 20.2109 234.083V33.8379C20.2109 28.315 24.6881 23.8379 30.2109 23.8379H1200.77C1206.3 23.8379 1210.77 28.315 1210.77 33.8379V234.083ZM38.9109 225.485C38.9109 231.008 43.388 235.485 48.9109 235.485H1182.07C1187.6 235.485 1192.07 231.008 1192.07 225.485V42.4361C1192.07 36.9133 1187.6 32.4361 1182.07 32.4361H48.9109C43.388 32.4361 38.9109 36.9133 38.9109 42.4361V225.485Z" fill="white"/>
<path d="M161.612 225.529L158.427 206.26L149.388 206L139.227 211.299L144.633 231.714L160.012 261.905L158.956 269.997L164.065 269.864L183.753 253.652L161.612 225.529Z" fill="#FFC041"/>
<path d="M153.317 206.397L156.502 225.666L178.644 253.788L158.955 269.999L139.523 231.851L134.117 211.435L144.279 206.137L153.317 206.397Z" fill="#FFC041"/>
<path d="M130.637 172.698C136.34 190.041 147.763 203.334 158.173 206.148C184.614 200.518 231.876 196.016 297.149 211.49L270.892 131.648L152.496 166.301L130.637 172.698Z" fill="#EFEFEF"/>
<path d="M130.635 172.699L121.172 175.469L100.383 181.555C107.152 202.136 122.391 216.738 133.659 213.439C134.443 213.21 135.24 212.874 136.045 212.461C139.58 211.098 147.025 208.523 158.171 206.151C147.761 203.335 136.339 190.041 130.635 172.699Z" fill="#FFC041"/>
<path d="M130.636 172.704C124.933 155.362 126.373 138.303 133.268 130.424C122.656 134.418 114.973 136.273 111.241 137.037C110.328 137.126 109.47 137.276 108.686 137.505C97.4177 140.803 93.6155 160.978 100.383 181.559L121.172 175.474L130.636 172.704Z" fill="#FFC041"/>
<path d="M133.268 130.42C126.374 138.299 124.933 155.358 130.636 172.7L152.493 166.303L270.89 131.65L244.633 51.8086C200.108 99.4173 158.444 120.944 133.268 130.42Z" fill="white"/>
<path d="M297.15 211.498C322.901 203.962 332.021 162.106 317.52 118.01C303.019 73.914 270.389 44.2768 244.638 51.8132C218.887 59.3495 209.767 101.206 224.268 145.301C238.769 189.397 271.399 219.034 297.15 211.498Z" fill="#FFC041"/>
<path d="M295.28 205.824C317.707 199.26 324.968 160.734 311.498 119.774C298.028 78.8135 268.928 50.9292 246.502 57.4927C224.075 64.0562 216.814 102.582 230.284 143.542C243.754 184.503 272.853 212.387 295.28 205.824Z" fill="#EFEFEF"/>
<path d="M295.28 205.824C317.707 199.26 324.968 160.734 311.498 119.774C298.028 78.8135 268.928 50.9292 246.502 57.4927C224.075 64.0562 216.814 102.582 230.284 143.542C243.754 184.503 272.853 212.387 295.28 205.824Z" fill="white"/>
<path d="M235.723 84.4962C230.775 85.9449 226.874 89.7577 224.151 95.1895C222.78 109.515 224.667 126.451 230.285 143.532C235.902 160.612 244.507 175.582 254.233 186.66C259.738 189.683 265.241 190.744 270.189 189.297C285.742 184.745 290.989 156.904 281.647 128.499C272.304 100.095 251.274 79.944 235.723 84.4962Z" fill="#EFEFEF"/>
<path d="M255.197 125.327C254.991 125.387 254.781 125.476 254.571 125.583C253.644 125.941 251.692 126.616 248.769 127.238C243.881 128.279 236.268 129.163 226.211 128.179C227.24 133.239 228.59 138.379 230.284 143.533C231.979 148.688 233.95 153.646 236.139 158.367C243.839 152.184 250.646 148.849 255.3 147.097C258.083 146.05 260.098 145.564 261.076 145.364C261.315 145.341 261.54 145.301 261.746 145.241C264.701 144.376 265.698 139.085 263.923 133.689C262.148 128.291 258.151 124.462 255.197 125.327Z" fill="white"/>
<path d="M255.023 136.308C256.801 141.716 260.236 145.514 262.695 144.795C265.154 144.075 265.707 139.108 263.929 133.701C262.151 128.294 258.716 124.495 256.257 125.214C253.798 125.934 253.244 130.901 255.023 136.308Z" fill="#FFC041"/>
<path d="M685.157 133.408L684.869 103.162H696.29L696.578 133.408H685.157ZM697.98 142.544C697.98 142.591 697.981 142.637 697.981 142.683C697.999 144.575 697.39 146.097 696.156 147.251C694.967 148.451 693.404 149.051 691.466 149.051C689.482 149.051 687.861 148.428 686.603 147.182C685.392 145.982 684.777 144.413 684.758 142.475C684.757 142.337 684.756 142.245 684.756 142.198C684.877 140.399 685.532 138.945 686.722 137.838C687.957 136.73 689.498 136.177 691.343 136.177C693.281 136.177 694.856 136.777 696.067 137.976C697.325 139.176 697.962 140.699 697.98 142.544ZM715.594 107.868C713.886 107.868 712.497 107.338 711.426 106.276C710.354 105.169 709.81 103.761 709.793 102.054C709.777 100.347 710.295 98.9857 711.347 97.9706C712.398 96.9093 713.777 96.3787 715.484 96.3787C717.192 96.3787 718.558 96.9093 719.583 97.9706C720.654 98.9857 721.198 100.347 721.214 102.054C721.231 103.808 720.714 105.215 719.662 106.276C718.657 107.338 717.301 107.868 715.594 107.868ZM728.053 107.868C726.345 107.868 724.956 107.338 723.885 106.276C722.813 105.169 722.269 103.761 722.253 102.054C722.236 100.347 722.754 98.9857 723.806 97.9706C724.857 96.9093 726.236 96.3787 727.944 96.3787C729.651 96.3787 731.017 96.9093 732.043 97.9706C733.113 98.9857 733.657 100.347 733.673 102.054C733.69 103.808 733.173 105.215 732.122 106.276C731.116 107.338 729.76 107.868 728.053 107.868ZM722.195 146.974C717.581 146.974 713.944 145.405 711.283 142.268C709.043 139.591 707.903 136.2 707.864 132.093C707.822 127.617 709.238 123.741 712.114 120.465C714.625 117.604 717.997 115.482 722.229 114.097C727.135 115.712 730.874 118.25 733.445 121.711C735.735 124.756 736.899 128.217 736.935 132.093C736.981 136.846 735.563 140.583 732.681 143.306C730.167 145.751 726.902 146.974 722.888 146.974H722.195ZM722.09 135.9H722.782C724.766 135.9 725.747 134.677 725.724 132.232C725.693 129.048 724.563 126.602 722.331 124.895C720.179 126.648 719.117 129.025 719.146 132.024C719.171 134.608 720.152 135.9 722.09 135.9ZM741.892 146.974L747.532 135.9H757.153C758.538 135.9 759.223 135.208 759.21 133.823C759.172 129.855 757.042 126.671 752.82 124.272L758.336 114.651C765.435 118.758 769.455 124.249 770.398 131.124C770.694 133.201 771.122 134.516 771.681 135.069C772.24 135.623 773.373 135.9 775.081 135.9H780.064L780.17 146.974H774.701C771.564 146.974 768.788 146.282 766.376 144.898C764.589 146.282 762.265 146.974 759.404 146.974H741.892ZM778.767 146.974L778.662 135.9H788.352C795.228 135.9 800.771 134.123 804.983 130.57C802.315 126.648 799.251 124.687 795.79 124.687C792.283 124.687 788.149 126.694 783.388 130.709L783.295 120.95C787.22 116.382 791.79 114.097 797.004 114.097H797.143C800.88 114.097 804.516 115.459 808.049 118.181C811.581 120.857 814.709 124.641 817.432 129.532L817.469 133.408C814.141 137.746 809.951 141.091 804.897 143.444C799.844 145.798 794.341 146.974 788.388 146.974H778.767ZM800.248 164.07C798.541 164.07 797.151 163.516 796.08 162.409C795.008 161.348 794.464 159.963 794.448 158.256C794.432 156.549 794.949 155.164 796.001 154.103C797.052 153.088 798.432 152.58 800.139 152.58C801.846 152.58 803.213 153.088 804.237 154.103C805.309 155.164 805.853 156.549 805.869 158.256C805.886 160.009 805.368 161.417 804.317 162.478C803.312 163.539 801.956 164.07 800.248 164.07ZM910.517 109.945C908.809 109.945 907.42 109.414 906.349 108.353C905.277 107.245 904.733 105.838 904.716 104.131C904.7 102.423 905.218 101.062 906.27 100.047C907.321 98.9857 908.7 98.4551 910.407 98.4551C912.115 98.4551 913.481 98.9857 914.506 100.047C915.577 101.062 916.121 102.423 916.137 104.131C916.154 105.884 915.637 107.291 914.585 108.353C913.58 109.414 912.224 109.945 910.517 109.945ZM884.738 135.9C887.077 129.532 890.35 124.387 894.558 120.465C899.179 116.22 904.419 114.097 910.279 114.097C915.955 114.097 920.496 116.059 923.902 119.981C926.841 123.303 928.333 127.363 928.378 132.162L928.39 133.408C928.432 137.838 927.081 141.276 924.335 143.721C921.956 145.89 918.875 146.974 915.091 146.974H884.082C883.159 146.974 882.282 146.905 881.45 146.767C880.43 151.104 878.108 154.472 874.486 156.872C871.23 159.04 867.295 160.125 862.68 160.125C856.22 160.125 851.192 157.841 847.595 153.273C844.793 149.766 843.369 145.613 843.324 140.814C843.291 137.4 844.024 134.377 845.522 131.747L856.298 129.463C854.757 132.462 854.002 135.577 854.033 138.807C854.063 141.898 854.848 144.39 856.388 146.282C857.929 148.128 859.991 149.051 862.575 149.051C867.974 149.051 870.651 146.651 870.605 141.852L870.438 124.272L881.801 118.25L881.94 132.854C881.951 134.008 882.143 134.792 882.516 135.208C882.89 135.623 883.63 135.854 884.738 135.9ZM916.964 132.854L916.958 132.162C916.937 129.947 916.32 128.171 915.107 126.833C913.941 125.495 912.389 124.826 910.451 124.826C907.682 124.826 905.015 125.818 902.45 127.802C899.931 129.786 897.857 132.485 896.228 135.9H914.64C915.747 135.9 916.415 135.761 916.643 135.485C916.871 135.162 916.978 134.285 916.964 132.854ZM956.61 135.9H963.047L963.152 146.974H955.677C955.077 146.974 954.269 146.928 953.253 146.836C952.155 152.65 949.24 156.71 944.509 159.017C942.442 159.986 940.231 160.471 937.878 160.471C934.74 160.471 931.664 159.64 928.648 157.979L928.554 148.082C931.013 149.466 933.373 150.158 935.634 150.158C936.557 150.158 937.41 150.043 938.192 149.812C940.906 148.935 942.245 146.605 942.209 142.821L942.006 121.503L953.37 115.482L953.535 132.854C953.547 134.054 953.762 134.862 954.181 135.277C954.6 135.692 955.41 135.9 956.61 135.9ZM999.572 135.9L999.677 146.974H961.746L961.641 135.9H969.393C968.683 134.008 968.317 131.909 968.295 129.601C968.248 124.664 969.987 120.696 973.512 117.697C976.396 115.297 979.73 114.097 983.514 114.097C988.682 114.097 992.88 116.382 996.107 120.95L996.2 130.709C992.61 126.787 988.876 124.826 985 124.826C984.862 124.826 984.746 124.826 984.654 124.826C981.333 124.918 979.688 126.648 979.72 130.017C979.757 133.939 982.222 135.9 987.113 135.9H999.572ZM1049.85 111.329C1048.15 111.329 1046.76 110.798 1045.69 109.737C1044.61 108.63 1044.07 107.222 1044.05 105.515C1044.04 103.808 1044.56 102.446 1045.61 101.431C1046.66 100.37 1048.04 99.8394 1049.75 99.8394C1051.45 99.8394 1052.82 100.37 1053.84 101.431C1054.92 102.446 1055.46 103.808 1055.47 105.515C1055.49 107.268 1054.97 108.676 1053.92 109.737C1052.92 110.798 1051.56 111.329 1049.85 111.329ZM1062.31 111.329C1060.61 111.329 1059.22 110.798 1058.15 109.737C1057.07 108.63 1056.53 107.222 1056.51 105.515C1056.5 103.808 1057.01 102.446 1058.07 101.431C1059.12 100.37 1060.5 99.8394 1062.2 99.8394C1063.91 99.8394 1065.28 100.37 1066.3 101.431C1067.37 102.446 1067.92 103.808 1067.93 105.515C1067.95 107.268 1067.43 108.676 1066.38 109.737C1065.38 110.798 1064.02 111.329 1062.31 111.329ZM1070.4 146.974C1069.29 151.312 1066.69 154.634 1062.61 156.941C1058.85 159.064 1054.06 160.125 1048.24 160.125C1040.17 160.125 1034.1 157.841 1030.04 153.273C1027.01 149.858 1025.47 145.705 1025.42 140.814C1025.39 137.4 1026.12 134.377 1027.62 131.747L1038.4 129.463C1036.86 132.462 1036.1 135.577 1036.13 138.807C1036.2 145.636 1040.2 149.051 1048.14 149.051C1053.03 149.051 1056.32 148.197 1058.01 146.49L1057.18 146.282C1052.7 145.59 1049.15 143.56 1046.53 140.191C1044.29 137.33 1043.15 134.1 1043.12 130.501C1043.07 125.333 1044.48 121.227 1047.36 118.181C1049.92 115.459 1053.3 114.097 1057.49 114.097C1061.79 114.097 1065.17 115.482 1067.64 118.25C1069.78 120.604 1070.88 123.672 1070.91 127.456L1070.99 135.9H1077.91L1078.02 146.974H1070.4ZM1059.57 135.623L1059.49 127.04C1059.47 125.564 1058.84 124.826 1057.6 124.826C1055.38 124.826 1054.29 126.579 1054.32 130.086C1054.35 132.947 1055.52 134.677 1057.83 135.277L1059.57 135.623ZM1120.3 135.9H1126.11L1126.22 146.974H1120.33C1116.83 146.974 1113.99 146.605 1111.81 145.867C1109.63 145.082 1107.61 143.767 1105.75 141.922C1099.97 145.29 1093.48 146.974 1086.28 146.974H1076.66L1076.55 135.9H1086.24C1093.12 135.9 1098.66 134.123 1102.87 130.57C1100.21 126.648 1097.14 124.687 1093.68 124.687C1090.17 124.687 1086.04 126.694 1081.28 130.709L1081.19 120.95C1085.11 116.382 1089.68 114.097 1094.9 114.097H1095.03C1098.77 114.097 1102.41 115.459 1105.94 118.181C1109.47 120.857 1112.6 124.641 1115.32 129.532L1115.36 133.408C1115.04 133.823 1114.52 134.446 1113.79 135.277C1115.17 135.692 1117.34 135.9 1120.3 135.9ZM1124.85 146.974L1124.75 135.9H1128.42C1130.17 135.9 1131.34 135.577 1131.94 134.931C1132.58 134.239 1132.89 132.97 1132.87 131.124L1132.65 108.422L1144.02 102.331L1144.29 131.193C1144.34 136.084 1142.88 139.984 1139.9 142.891C1137.16 145.613 1133.53 146.974 1129.01 146.974H1124.85ZM1156.92 146.974L1156.55 108.422L1167.92 102.331L1168.34 146.974H1156.92Z" fill="white"/>
<path d="M345.645 76.2095L356.998 63.7385L349.266 62.5586L367.247 48.666L356.382 60.2289L365.298 61.6733L345.645 76.2095Z" fill="#FAF2C7"/>
<path d="M497.246 179.141L508.599 166.67L500.868 165.49L518.849 151.598L507.984 163.161L516.899 164.605L497.246 179.141Z" fill="#FAF2C7"/>
<path d="M361.879 194.244L377.445 201.634L376.796 194.271L395.419 207.389L380.906 200.227L381.567 208.736L361.879 194.244Z" fill="#FAF2C7"/>
<path d="M855.02 68.6445L870.586 76.0342L869.937 68.6717L888.559 81.7892L874.047 74.6269L874.708 83.1364L855.02 68.6445Z" fill="#FAF2C7"/>
<path d="M1028.86 185.92L1044.42 193.31L1043.77 185.947L1062.4 199.065L1047.88 191.902L1048.54 200.412L1028.86 185.92Z" fill="#FAF2C7"/>
<path d="M416.391 120.843L441.94 98.4023L426.828 94.4279L465.909 70.5527L441.546 91.2872L458.952 96.0382L416.391 120.843Z" fill="#FAF2C7"/>
<path d="M710.496 93.2902L736.045 70.8496L720.934 66.8751L760.015 43L735.651 63.7345L753.058 68.4855L710.496 93.2902Z" fill="#FAF2C7"/>
<path d="M548.789 111.746L595.467 96.505L578.325 83.2016L643.384 73.4121L599.275 87.0859L618.916 102.633L548.789 111.746Z" fill="#FAF2C7"/>
<path d="M607.406 167.375L642.245 169.444L634.914 156.361L680.16 166.711L647.45 164.282L655.764 179.471L607.406 167.375Z" fill="#FAF2C7"/>
</svg>
