<svg width="12" height="13" viewBox="0 0 12 13" fill="none" xmlns="http://www.w3.org/2000/svg">
<path d="M7.00262 2.5H4.99762C3.10762 2.5 2.16262 2.5 1.57512 3.086C1.17012 3.489 1.04462 4.0615 1.00512 4.9945C0.997615 5.1795 0.993615 5.2725 1.02812 5.334C1.06312 5.3955 1.20062 5.473 1.47662 5.627C1.63208 5.71367 1.76158 5.84029 1.85174 5.99376C1.94189 6.14724 1.98942 6.32201 1.98942 6.5C1.98942 6.67799 1.94189 6.85276 1.85174 7.00624C1.76158 7.15971 1.63208 7.28633 1.47662 7.373C1.20062 7.5275 1.06262 7.6045 1.02812 7.666C0.993615 7.7275 0.997615 7.82 1.00562 8.005C1.04462 8.9385 1.17062 9.511 1.57512 9.914C2.16212 10.5 3.10712 10.5 4.99762 10.5H7.00262C8.89262 10.5 9.83762 10.5 10.4251 9.914C10.8301 9.511 10.9556 8.9385 10.9951 8.0055C11.0026 7.8205 11.0066 7.7275 10.9721 7.666C10.9371 7.6045 10.7996 7.5275 10.5236 7.373C10.3681 7.28633 10.2386 7.15971 10.1485 7.00624C10.0583 6.85276 10.0108 6.67799 10.0108 6.5C10.0108 6.32201 10.0583 6.14724 10.1485 5.99376C10.2386 5.84029 10.3681 5.71367 10.5236 5.627C10.7996 5.473 10.9376 5.3955 10.9721 5.334C11.0066 5.2725 11.0026 5.18 10.9946 4.9945C10.9556 4.0615 10.8296 3.4895 10.4251 3.086C9.83812 2.5 8.89312 2.5 7.00262 2.5Z" stroke="#9094A0"/>
<path d="M4.5 8L7.5 5" stroke="#9094A0" stroke-linecap="round"/>
<path d="M7.75 7.75C7.75 7.88261 7.69732 8.00979 7.60355 8.10355C7.50979 8.19732 7.38261 8.25 7.25 8.25C7.11739 8.25 6.99021 8.19732 6.89645 8.10355C6.80268 8.00979 6.75 7.88261 6.75 7.75C6.75 7.61739 6.80268 7.49021 6.89645 7.39645C6.99021 7.30268 7.11739 7.25 7.25 7.25C7.38261 7.25 7.50979 7.30268 7.60355 7.39645C7.69732 7.49021 7.75 7.61739 7.75 7.75ZM5.25 5.25C5.25 5.38261 5.19732 5.50979 5.10355 5.60355C5.00979 5.69732 4.88261 5.75 4.75 5.75C4.61739 5.75 4.49021 5.69732 4.39645 5.60355C4.30268 5.50979 4.25 5.38261 4.25 5.25C4.25 5.11739 4.30268 4.99021 4.39645 4.89645C4.49021 4.80268 4.61739 4.75 4.75 4.75C4.88261 4.75 5.00979 4.80268 5.10355 4.89645C5.19732 4.99021 5.25 5.11739 5.25 5.25Z" fill="#9094A0"/>
</svg>
