<svg width="70" height="71" viewBox="0 0 70 71" fill="none" xmlns="http://www.w3.org/2000/svg">
<g clip-path="url(#clip0_60_1416)">
<rect opacity="0.05" y="0.833008" width="70" height="70" rx="5" fill="#BBA664"/>
<path d="M43.2986 50.983C41.9486 50.983 40.3986 50.633 38.6986 49.983C35.2986 48.633 31.5486 46.033 28.1986 42.683C24.8486 39.333 22.2486 35.583 20.8986 32.133C19.3986 28.433 19.5486 25.383 21.2986 23.683C21.3486 23.633 21.4486 23.583 21.4986 23.533L25.6986 21.033C26.7486 20.4329 28.0986 20.7329 28.7986 21.733L31.7486 26.133C32.4486 27.183 32.1486 28.583 31.1486 29.283L29.3486 30.533C30.6486 32.633 34.3486 37.783 40.2486 41.483L41.3486 39.883C42.1986 38.683 43.5486 38.333 44.6486 39.083L49.0486 42.033C50.0486 42.733 50.3486 44.083 49.7486 45.133L47.2486 49.333C47.1986 49.433 47.1486 49.483 47.0986 49.533C46.1986 50.483 44.8986 50.983 43.2986 50.983ZM22.7986 25.383C21.8486 26.433 21.8986 28.583 22.9986 31.333C24.2486 34.483 26.6486 37.933 29.7986 41.083C32.8986 44.183 36.3986 46.583 39.4986 47.833C42.1986 48.933 44.3486 48.983 45.4486 48.033L47.8486 43.933C47.8486 43.883 47.8486 43.883 47.8486 43.833L43.4486 40.883C43.4486 40.883 43.3486 40.933 43.2486 41.083L42.1486 42.683C41.4486 43.683 40.0986 43.983 39.0986 43.333C32.7986 39.433 28.8986 33.983 27.4986 31.783C26.8486 30.733 27.0986 29.383 28.0986 28.683L29.8986 27.433V27.383L26.9486 22.983C26.9486 22.933 26.8986 22.933 26.8486 22.983L22.7986 25.383Z" fill="#BBA664"/>
<path d="M48.2995 34.083C47.6995 34.083 47.2495 33.633 47.1995 33.033C46.7995 27.983 42.6495 23.933 37.5495 23.583C36.9495 23.533 36.4495 23.033 36.4995 22.383C36.5495 21.783 37.0495 21.283 37.6995 21.333C43.8995 21.733 48.9495 26.633 49.4495 32.833C49.4995 33.433 49.0495 33.983 48.3995 34.033C48.3995 34.083 48.3495 34.083 48.2995 34.083Z" fill="#BBA664"/>
<path d="M43.3483 34.5332C42.7983 34.5332 42.2983 34.1332 42.2483 33.5332C41.9483 30.8332 39.8483 28.7332 37.1483 28.3832C36.5483 28.3332 36.0983 27.7332 36.1483 27.1332C36.1983 26.5332 36.7983 26.0832 37.3983 26.1332C41.1483 26.5832 44.0483 29.4832 44.4983 33.2332C44.5483 33.8332 44.1483 34.3832 43.4983 34.4832C43.3983 34.5332 43.3483 34.5332 43.3483 34.5332Z" fill="#BBA664"/>
</g>
<defs>
<clipPath id="clip0_60_1416">
<rect width="70" height="70" fill="white" transform="translate(0 0.833008)"/>
</clipPath>
</defs>
</svg>
