<svg width="63" height="65" viewBox="0 0 63 65" fill="none" xmlns="http://www.w3.org/2000/svg">
<g clip-path="url(#clip0_128_1538)">
<g clip-path="url(#clip1_128_1538)">
<path d="M24.7262 19.0663C26.6979 19.0663 28.6695 19.0446 30.6412 19.0663C36.5562 19.1313 40.9545 23.5838 40.9329 29.4988C40.9329 31.3513 41.0845 33.2146 40.7704 35.0671C39.8712 40.3104 35.0937 44.0804 29.7637 43.7229C24.4987 43.3763 20.187 38.9021 20.057 33.6046C20.0029 31.1346 20.0245 28.6646 20.057 26.2054C20.0679 25.5879 19.9054 25.1546 19.4287 24.7321C18.3454 23.7788 17.4462 22.6413 16.6012 21.4713C16.2112 20.9296 15.8862 20.3771 16.222 19.6946C16.547 19.0229 17.1862 19.0663 17.8037 19.0663C20.1004 19.0663 22.4079 19.0663 24.7262 19.0663Z" fill="#444B54"/>
<path d="M31.4342 45.9331C37.1108 46.1281 42.3108 48.9339 45.9942 54.5023C46.1242 54.6864 46.2433 54.8814 46.3517 55.0873C46.7525 55.7914 46.6658 56.4523 45.9508 56.8531C45.29 57.2214 44.6942 56.9939 44.3042 56.3439C43.6867 55.3364 43.015 54.3831 42.2133 53.5164C35.1608 45.8681 22.8975 46.8648 17.1775 55.5531C17.0475 55.7481 16.9283 55.9323 16.82 56.1381C16.3975 56.9073 15.7908 57.3298 14.9675 56.8206C14.1333 56.3006 14.3283 55.5748 14.7725 54.8381C15.9425 52.8989 17.405 51.2198 19.1925 49.8331C22.5075 47.2656 26.2667 45.9548 31.4342 45.9331Z" fill="#444B54"/>
<path d="M41.7259 44.4814C40.8376 44.5247 39.9818 44.373 39.1476 44.0914C38.3459 43.8205 37.7393 43.333 38.0318 42.423C38.3243 41.5022 39.0718 41.513 39.8951 41.7514C43.9684 42.9322 47.7601 40.0397 47.5218 35.8905C47.3918 33.4747 46.0701 31.8064 43.8926 30.8097C43.6543 30.7014 43.3943 30.6472 43.1451 30.5497C42.4626 30.3005 42.0401 29.8564 42.2568 29.0872C42.4734 28.3289 43.0693 28.1014 43.7843 28.2747C45.6584 28.7297 47.2184 29.7264 48.3343 31.2864C50.2843 34.0164 50.5768 36.9847 49.0601 39.9747C47.5651 42.9322 45.0518 44.4272 41.7259 44.4814Z" fill="#BBA664"/>
<path d="M19.3959 44.4706C15.3225 44.4706 11.8667 41.6756 11.1734 37.9381C10.4259 33.8864 12.5275 30.0297 16.2759 28.5781C16.7309 28.4047 17.1967 28.1556 17.695 28.3072C18.2042 28.4589 18.5834 28.8056 18.6159 29.3472C18.6592 30.0514 18.2475 30.4847 17.6084 30.6906C16.265 31.1239 15.1709 31.8714 14.38 33.0739C13.0909 35.0456 13.08 37.5372 14.38 39.5089C15.6475 41.4264 18.0092 42.4122 20.3059 41.9789C20.75 41.8922 21.1834 41.7622 21.6384 41.6972C22.2667 41.6106 22.7867 41.8164 22.9492 42.4881C23.1117 43.1489 22.9275 43.7122 22.2342 43.9614C21.27 44.3189 20.2842 44.5356 19.3959 44.4706Z" fill="#BBA664"/>
<path d="M15.1182 47.6123C15.8224 47.6231 16.2557 47.8831 16.3641 48.4898C16.4941 49.2265 16.2016 49.7248 15.4541 49.9523C13.8074 50.4506 12.3016 51.2198 10.9257 52.2598C9.5499 53.2998 8.42324 54.5673 7.51324 56.0298C7.0474 56.7881 6.47324 57.3298 5.5849 56.7773C4.72907 56.2465 4.98907 55.499 5.4224 54.7948C7.58907 51.2956 10.6224 48.934 14.5549 47.7206C14.7607 47.6665 14.9882 47.6448 15.1182 47.6123Z" fill="#BBA664"/>
<path d="M44.5864 48.8039C44.5647 47.818 45.2906 47.3955 46.4497 47.7422C48.8764 48.4789 51.0214 49.7355 52.8631 51.4905C53.9356 52.5089 54.8672 53.6572 55.6256 54.9355C56.0481 55.6397 56.1456 56.333 55.3547 56.8097C54.5747 57.2755 53.9789 56.9072 53.5564 56.1922C51.7147 53.083 49.0172 51.0572 45.5939 49.9847C44.9981 49.8005 44.5972 49.4864 44.5864 48.8039Z" fill="#BBA664"/>
<path d="M58.1501 7.07394C57.9226 6.99811 57.6951 6.92227 57.4676 6.84644C57.5867 5.88227 57.1751 5.12394 56.4492 4.46311C58.1392 4.21394 58.1501 4.21394 58.1501 5.71977C58.1501 6.16394 58.1501 6.61894 58.1501 7.07394Z" fill="#FBFBFB"/>
<path d="M22.4841 27.2349C24.8999 28.7299 27.2833 29.824 29.8833 30.409C32.4183 30.9832 34.9641 31.2107 37.5424 30.8315C38.2574 30.7232 38.5716 30.8315 38.5174 31.6549C38.4416 33.009 38.5824 34.3849 38.1599 35.7065C36.9574 39.4982 33.2091 41.8165 29.2008 41.2424C25.4958 40.7115 22.5708 37.364 22.4841 33.4965C22.4408 31.4707 22.4841 29.4449 22.4841 27.2349Z" fill="#FEFEFE"/>
<path d="M26.625 47.623L29.5067 52.3572" stroke="#444B54" stroke-width="1.40833" stroke-miterlimit="10"/>
<path d="M32.5697 52.3247L29.5039 52.3572" stroke="#444B54" stroke-width="1.40833" stroke-miterlimit="10"/>
<path d="M34.7695 47.623L32.5703 52.3247" stroke="#444B54" stroke-width="1.40833" stroke-miterlimit="10"/>
<path d="M29.5042 52.3574L27.5 58.7924" stroke="#444B54" stroke-width="1.40833" stroke-miterlimit="10"/>
<path d="M32.5703 52.3247L34.672 58.7705" stroke="#444B54" stroke-width="1.40833" stroke-miterlimit="10"/>
</g>
</g>
<defs>
<clipPath id="clip0_128_1538">
<rect width="63" height="65" fill="white"/>
</clipPath>
<clipPath id="clip1_128_1538">
<rect width="65" height="65" fill="white" transform="translate(-2)"/>
</clipPath>
</defs>
</svg>
