<svg width="20" height="20" viewBox="0 0 20 20" fill="none" xmlns="http://www.w3.org/2000/svg">
<path d="M6.5992 6.28333C5.93253 6 5.6492 5.175 6.0492 4.575C6.85753 3.375 8.20753 2.5 9.99087 2.5C11.9492 2.5 13.2909 3.39167 13.9742 4.50833C14.5575 5.46667 14.8992 7.25833 13.9992 8.59167C12.9992 10.0667 12.0409 10.5167 11.5242 11.4667C11.3992 11.6917 11.3242 11.875 11.2742 12.25C11.1992 12.8583 10.6992 13.3333 10.0825 13.3333C9.35753 13.3333 8.76587 12.7083 8.8492 11.9833C8.8992 11.5583 8.9992 11.1167 9.23253 10.7C9.8742 9.54167 11.1075 8.85833 11.8242 7.83333C12.5825 6.75833 12.1575 4.75 10.0075 4.75C9.03253 4.75 8.3992 5.25833 8.00753 5.86667C7.71587 6.34167 7.10753 6.49167 6.5992 6.28333ZM11.6659 16.6667C11.6659 17.5833 10.9159 18.3333 9.9992 18.3333C9.08253 18.3333 8.33253 17.5833 8.33253 16.6667C8.33253 15.75 9.08253 15 9.9992 15C10.9159 15 11.6659 15.75 11.6659 16.6667Z" fill="#BBA664"/>
</svg>
