<svg width="57" height="57" viewBox="0 0 57 57" fill="none" xmlns="http://www.w3.org/2000/svg">
<rect x="28.2852" width="40" height="40" rx="5" transform="rotate(45 28.2852 0)" fill="#BBA664"/>
<path fill-rule="evenodd" clip-rule="evenodd" d="M25.6068 20C23.9132 20 22.5866 20.4679 21.664 21.3905C20.7413 22.3132 20.2734 23.6397 20.2734 25.3333V36H26.9401V25.3333H22.9401C22.9401 24.3727 23.1452 23.6806 23.5496 23.2761C23.954 22.8717 24.6461 22.6667 25.6068 22.6667" fill="white"/>
<path fill-rule="evenodd" clip-rule="evenodd" d="M34.9427 20C33.2491 20 31.9226 20.4679 30.9999 21.3905C30.0773 22.3132 29.6094 23.6397 29.6094 25.3333V36H36.276V25.3333H32.276C32.276 24.3727 32.4811 23.6806 32.8855 23.2761C33.29 22.8717 33.982 22.6667 34.9427 22.6667" fill="white"/>
</svg>
