<svg width="81" height="83" viewBox="0 0 81 83" fill="none" xmlns="http://www.w3.org/2000/svg">
<path fill-rule="evenodd" clip-rule="evenodd" d="M41 2C63.0916 2 81 19.9086 81 41.9998C81 64.0911 63.0916 81.9997 41 81.9997C18.9089 81.9997 1 64.0911 1 41.9998C1 19.9086 18.9089 2 41 2Z" fill="#BBA664"/>
<path fill-rule="evenodd" clip-rule="evenodd" d="M41 2C63.0916 2 81 19.9086 81 41.9998C81 64.0911 63.0916 81.9997 41 81.9997C18.9089 81.9997 1 64.0911 1 41.9998C1 19.9086 18.9089 2 41 2Z" fill="url(#paint0_linear_60_1086)" style="mix-blend-mode:overlay"/>
<path d="M47.0007 38L39.0007 46L35.0007 42M43.4927 24.918L45.9347 26.998C46.5507 27.522 47.3147 27.838 48.1187 27.904L51.3187 28.16C52.2282 28.2326 53.0822 28.6268 53.7276 29.2718C54.3729 29.9168 54.7675 30.7705 54.8407 31.68L55.0947 34.88C55.1607 35.686 55.4787 36.452 56.0027 37.066L58.0827 39.506C58.6755 40.201 59.0011 41.0845 59.0011 41.998C59.0011 42.9115 58.6755 43.795 58.0827 44.49L56.0027 46.932C55.4787 47.548 55.1607 48.312 55.0967 49.118L54.8407 52.318C54.7681 53.2275 54.3739 54.0815 53.7289 54.7269C53.0839 55.3723 52.2302 55.7669 51.3207 55.84L48.1207 56.096C47.315 56.1598 46.5501 56.4761 45.9347 57L43.4927 59.08C42.7975 59.6724 41.914 59.9978 41.0007 59.9978C40.0873 59.9978 39.2038 59.6724 38.5087 59.08L36.0687 57C35.4528 56.4758 34.687 56.1594 33.8807 56.096L30.6807 55.84C29.7709 55.7668 28.9169 55.3719 28.2718 54.7261C27.6268 54.0803 27.2329 53.2259 27.1607 52.316L26.9047 49.118C26.8399 48.3128 26.5229 47.5486 25.9987 46.934L23.9187 44.49C23.3269 43.7953 23.002 42.9126 23.002 42C23.002 41.0874 23.3269 40.2047 23.9187 39.51L25.9987 37.066C26.5247 36.45 26.8387 35.686 26.9027 34.88L27.1587 31.682C27.2323 30.7718 27.6275 29.9175 28.2736 29.2722C28.9197 28.6268 29.7744 28.2326 30.6847 28.16L33.8807 27.906C34.6866 27.8416 35.4516 27.5246 36.0667 27L38.5087 24.92C39.2038 24.3276 40.0873 24.0022 41.0007 24.0022C41.914 24.0022 42.7975 24.3256 43.4927 24.918Z" stroke="white" stroke-width="3" stroke-linecap="round" stroke-linejoin="round"/>
<defs>
<linearGradient id="paint0_linear_60_1086" x1="40.6002" y1="124.799" x2="123" y2="42.3998" gradientUnits="userSpaceOnUse">
<stop stop-color="white" stop-opacity="0.01"/>
<stop offset="1" stop-color="white" stop-opacity="0.5"/>
</linearGradient>
</defs>
</svg>
