<svg width="64" height="64" viewBox="0 0 64 64" fill="none" xmlns="http://www.w3.org/2000/svg">
<path d="M37.346 10.666H26.6526C16.5726 10.666 11.5326 10.666 8.39931 13.7913C6.23931 15.9407 5.56998 18.994 5.35931 23.97C5.31931 24.9567 5.29798 25.4527 5.48198 25.7807C5.66865 26.1087 6.40198 26.522 7.87398 27.3433C8.70314 27.8056 9.39381 28.4809 9.87463 29.2994C10.3554 30.118 10.6089 31.05 10.6089 31.9993C10.6089 32.9487 10.3554 33.8807 9.87463 34.6993C9.39381 35.5178 8.70314 36.1931 7.87398 36.6554C6.40198 37.4794 5.66598 37.89 5.48198 38.218C5.29798 38.546 5.31931 39.0394 5.36198 40.026C5.56998 45.0047 6.24198 48.058 8.39931 50.2073C11.53 53.3327 16.57 53.3327 26.6526 53.3327H37.346C47.426 53.3327 52.466 53.3327 55.5993 50.2073C57.7593 48.058 58.4286 45.0047 58.6393 40.0287C58.6793 39.042 58.7006 38.546 58.5166 38.218C58.33 37.89 57.5967 37.4794 56.1247 36.6554C55.2955 36.1931 54.6048 35.5178 54.124 34.6993C53.6432 33.8807 53.3897 32.9487 53.3897 31.9993C53.3897 31.05 53.6432 30.118 54.124 29.2994C54.6048 28.4809 55.2955 27.8056 56.1247 27.3433C57.5967 26.522 58.3326 26.1087 58.5166 25.7807C58.7006 25.4527 58.6793 24.9594 58.6366 23.97C58.4286 18.994 57.7566 15.9433 55.5993 13.7913C52.4686 10.666 47.4286 10.666 37.346 10.666Z" stroke="#BBA664" stroke-width="5"/>
<path d="M24 40L40 24" stroke="#BBA664" stroke-width="5" stroke-linecap="round"/>
<path d="M41.3307 38.666C41.3307 39.3733 41.0498 40.0515 40.5497 40.5516C40.0496 41.0517 39.3713 41.3327 38.6641 41.3327C37.9568 41.3327 37.2785 41.0517 36.7784 40.5516C36.2783 40.0515 35.9974 39.3733 35.9974 38.666C35.9974 37.9588 36.2783 37.2805 36.7784 36.7804C37.2785 36.2803 37.9568 35.9993 38.6641 35.9993C39.3713 35.9993 40.0496 36.2803 40.5497 36.7804C41.0498 37.2805 41.3307 37.9588 41.3307 38.666ZM27.9974 25.3327C27.9974 26.0399 27.7164 26.7182 27.2163 27.2183C26.7162 27.7184 26.038 27.9993 25.3307 27.9993C24.6235 27.9993 23.9452 27.7184 23.4451 27.2183C22.945 26.7182 22.6641 26.0399 22.6641 25.3327C22.6641 24.6254 22.945 23.9472 23.4451 23.4471C23.9452 22.947 24.6235 22.666 25.3307 22.666C26.038 22.666 26.7162 22.947 27.2163 23.4471C27.7164 23.9472 27.9974 24.6254 27.9974 25.3327Z" fill="#BBA664"/>
</svg>
