<svg width="64" height="64" viewBox="0 0 64 64" fill="none" xmlns="http://www.w3.org/2000/svg">
<g clip-path="url(#clip0_1336_3108)">
<path d="M26.668 30.2285H32.0013V33.7841H26.668V30.2285Z" fill="#BBA664"/>
<path d="M47.0174 25.2001C43.8645 20.0406 39.5632 15.6785 34.4486 12.4534C32.0857 10.9559 29.3922 10.0595 26.6032 9.84262C23.8142 9.6257 21.0145 10.0948 18.4486 11.209C16.2041 12.2677 14.2511 13.8568 12.7582 15.839C11.2653 17.8213 10.2773 20.1372 9.87967 22.5868C9.73745 23.4223 9.63078 24.2223 9.52412 25.0045C7.85966 25.2743 6.34523 26.1268 5.2511 27.4098C4.15698 28.6928 3.55435 30.3228 3.55078 32.009V42.9068C3.55078 43.8497 3.92538 44.7541 4.59218 45.4209C5.25898 46.0877 6.16334 46.4623 7.10634 46.4623V32.009C7.10634 31.066 7.48094 30.1616 8.14773 29.4948C8.81453 28.828 9.7189 28.4534 10.6619 28.4534H43.9597C47.386 28.4581 50.6707 29.8213 53.0934 32.2441C55.5162 34.6669 56.8794 37.9515 56.8841 41.3779V42.6756H53.3286C52.5777 40.8447 51.1791 39.3544 49.3995 38.4889C47.6199 37.6235 45.5839 37.4436 43.6801 37.9835C41.7763 38.5234 40.138 39.7454 39.0777 41.4163C38.0174 43.0871 37.6094 45.0899 37.9315 47.0423C38.2537 48.9948 39.2834 50.7603 40.8243 52.002C42.3652 53.2437 44.3092 53.8745 46.2856 53.7742C48.2619 53.674 50.1322 52.8495 51.5394 51.4582C52.9466 50.067 53.7924 48.2063 53.9152 46.2312H56.8841C57.8271 46.2312 58.7315 45.8566 59.3983 45.1898C60.0651 44.523 60.4397 43.6186 60.4397 42.6756V41.3779C60.4325 37.5413 59.0884 33.8272 56.6387 30.8745C54.189 27.9219 50.7868 25.9153 47.0174 25.2001ZM19.5508 24.8979H12.3152C12.3152 24.3468 12.4752 23.7779 12.5819 23.1201C12.889 21.1671 13.6906 19.3252 14.9104 17.7694C16.1301 16.2135 17.7276 14.9956 19.5508 14.2312V24.8979ZM23.1063 24.8979V13.4845C26.4254 13.0535 29.7914 13.782 32.6352 15.5468C36.5174 17.9649 39.8681 21.1462 42.4841 24.8979H23.1063ZM45.8619 50.4623C44.9829 50.4623 44.1236 50.2016 43.3927 49.7133C42.6618 49.2249 42.0922 48.5308 41.7558 47.7187C41.4194 46.9066 41.3314 46.0129 41.5028 45.1508C41.6743 44.2887 42.0976 43.4967 42.7192 42.8752C43.3408 42.2536 44.1327 41.8303 44.9948 41.6588C45.857 41.4873 46.7506 41.5753 47.5627 41.9117C48.3748 42.2481 49.069 42.8178 49.5573 43.5487C50.0457 44.2796 50.3063 45.1388 50.3063 46.0179C50.3063 47.1966 49.8381 48.3271 49.0046 49.1606C48.1711 49.9941 47.0406 50.4623 45.8619 50.4623Z" fill="#BBA664"/>
<path d="M25.192 42.6637C24.4412 40.8328 23.0425 39.3425 21.2629 38.477C19.4833 37.6116 17.4473 37.4317 15.5435 37.9716C13.6397 38.5115 12.0014 39.7335 10.9411 41.4043C9.88079 43.0752 9.4728 45.0779 9.79496 47.0304C10.1171 48.9829 11.1469 50.7484 12.6877 51.9901C14.2286 53.2318 16.1727 53.8626 18.149 53.7623C20.1254 53.662 21.9956 52.8376 23.4028 51.4463C24.8101 50.0551 25.6558 48.1944 25.7787 46.2193H35.2009V45.7749C35.1657 44.726 35.2855 43.6776 35.5564 42.6637H25.192ZM17.7787 50.4504C16.8996 50.4504 16.0403 50.1897 15.3095 49.7014C14.5786 49.213 14.0089 48.5189 13.6725 47.7068C13.3361 46.8947 13.2481 46.001 13.4196 45.1389C13.5911 44.2768 14.0144 43.4848 14.636 42.8633C15.2575 42.2417 16.0494 41.8184 16.9116 41.6469C17.7737 41.4754 18.6674 41.5634 19.4795 41.8998C20.2916 42.2362 20.9857 42.8059 21.4741 43.5368C21.9624 44.2676 22.2231 45.1269 22.2231 46.006C22.2231 47.1847 21.7548 48.3152 20.9214 49.1487C20.0879 49.9822 18.9574 50.4504 17.7787 50.4504Z" fill="#BBA664"/>
</g>
<defs>
<clipPath id="clip0_1336_3108">
<rect width="64" height="64" fill="white"/>
</clipPath>
</defs>
</svg>
