<svg width="64" height="64" viewBox="0 0 64 64" fill="none" xmlns="http://www.w3.org/2000/svg">
<g clip-path="url(#clip0_1336_3118)">
<path fill-rule="evenodd" clip-rule="evenodd" d="M13.3333 13.3333C13.3333 11.9188 13.8952 10.5623 14.8954 9.5621C15.8956 8.5619 17.2522 8 18.6667 8H45.3333C46.7478 8 48.1044 8.5619 49.1046 9.5621C50.1048 10.5623 50.6667 11.9188 50.6667 13.3333V16H53.3333C54.0406 16 54.7189 16.281 55.219 16.781C55.7191 17.2811 56 17.9594 56 18.6667C56 19.3739 55.7191 20.0522 55.219 20.5523C54.7189 21.0524 54.0406 21.3333 53.3333 21.3333V50.6667C54.0406 50.6667 54.7189 50.9476 55.219 51.4477C55.7191 51.9478 56 52.6261 56 53.3333C56 54.0406 55.7191 54.7189 55.219 55.219C54.7189 55.7191 54.0406 56 53.3333 56H10.6667C9.95942 56 9.28115 55.7191 8.78105 55.219C8.28095 54.7189 8 54.0406 8 53.3333C8 52.6261 8.28095 51.9478 8.78105 51.4477C9.28115 50.9476 9.95942 50.6667 10.6667 50.6667V21.3333C9.95942 21.3333 9.28115 21.0524 8.78105 20.5523C8.28095 20.0522 8 19.3739 8 18.6667C8 17.9594 8.28095 17.2811 8.78105 16.781C9.28115 16.281 9.95942 16 10.6667 16H13.3333V13.3333ZM45.3333 13.3333V16H18.6667V13.3333H45.3333ZM48 21.3333V50.6667H38.6667V44C38.6667 42.2319 37.9643 40.5362 36.714 39.286C35.4638 38.0357 33.7681 37.3333 32 37.3333C30.2319 37.3333 28.5362 38.0357 27.286 39.286C26.0357 40.5362 25.3333 42.2319 25.3333 44V50.6667H16V21.3333H48ZM32 42.6667C32.3536 42.6667 32.6928 42.8071 32.9428 43.0572C33.1929 43.3072 33.3333 43.6464 33.3333 44V50.6667H30.6667V44C30.6667 43.6464 30.8071 43.3072 31.0572 43.0572C31.3072 42.8071 31.6464 42.6667 32 42.6667ZM21.3333 34.6667C22.0406 34.6667 22.7189 34.9476 23.219 35.4477C23.719 35.9478 24 36.6261 24 37.3333V40C24 40.7072 23.719 41.3855 23.219 41.8856C22.7189 42.3857 22.0406 42.6667 21.3333 42.6667C20.6261 42.6667 19.9478 42.3857 19.4477 41.8856C18.9476 41.3855 18.6667 40.7072 18.6667 40V37.3333C18.6667 36.6261 18.9476 35.9478 19.4477 35.4477C19.9478 34.9476 20.6261 34.6667 21.3333 34.6667ZM42.6667 34.6667C43.3198 34.6668 43.9502 34.9065 44.4383 35.3406C44.9264 35.7746 45.2382 36.3727 45.3147 37.0213L45.3333 37.3333V40C45.3326 40.6797 45.0723 41.3334 44.6057 41.8277C44.1392 42.3219 43.5015 42.6193 42.8229 42.6591C42.1444 42.699 41.4763 42.4782 40.9551 42.042C40.4339 41.6057 40.0989 40.9869 40.0187 40.312L40 40V37.3333C40 36.6261 40.281 35.9478 40.7811 35.4477C41.2811 34.9476 41.9594 34.6667 42.6667 34.6667ZM21.3333 24C21.9865 24.0001 22.6169 24.2399 23.105 24.6739C23.5931 25.1079 23.9049 25.706 23.9813 26.3547L24 26.6667V29.3333C23.9992 30.013 23.739 30.6668 23.2724 31.161C22.8058 31.6552 22.1681 31.9526 21.4896 31.9925C20.8111 32.0323 20.143 31.8115 19.6218 31.3753C19.1006 30.9391 18.7656 30.3203 18.6853 29.6453L18.6667 29.3333V26.6667C18.6667 25.9594 18.9476 25.2811 19.4477 24.781C19.9478 24.281 20.6261 24 21.3333 24ZM32 24C32.6532 24.0001 33.2836 24.2399 33.7717 24.6739C34.2598 25.1079 34.5716 25.706 34.648 26.3547L34.6667 26.6667V29.3333C34.6659 30.013 34.4057 30.6668 33.9391 31.161C33.4725 31.6552 32.8348 31.9526 32.1563 31.9925C31.4778 32.0323 30.8097 31.8115 30.2884 31.3753C29.7672 30.9391 29.4323 30.3203 29.352 29.6453L29.3333 29.3333V26.6667C29.3333 25.9594 29.6143 25.2811 30.1144 24.781C30.6145 24.281 31.2928 24 32 24ZM42.6667 24C43.3739 24 44.0522 24.281 44.5523 24.781C45.0524 25.2811 45.3333 25.9594 45.3333 26.6667V29.3333C45.3333 30.0406 45.0524 30.7189 44.5523 31.219C44.0522 31.719 43.3739 32 42.6667 32C41.9594 32 41.2811 31.719 40.7811 31.219C40.281 30.7189 40 30.0406 40 29.3333V26.6667C40 25.9594 40.281 25.2811 40.7811 24.781C41.2811 24.281 41.9594 24 42.6667 24Z" fill="#BBA664"/>
</g>
<defs>
<clipPath id="clip0_1336_3118">
<rect width="64" height="64" fill="white"/>
</clipPath>
</defs>
</svg>
