<svg width="64" height="64" viewBox="0 0 64 64" fill="none" xmlns="http://www.w3.org/2000/svg">
<path d="M51.4654 45.0673C52.532 43.2006 53.332 41.0673 53.332 38.6673C53.332 32.0006 47.9987 26.6673 41.332 26.6673C34.6654 26.6673 29.332 32.0006 29.332 38.6673C29.332 45.334 34.6654 50.6673 41.332 50.6673C43.732 50.6673 45.8654 49.8673 47.732 48.8006L56.2654 57.334L59.9987 53.6007L51.4654 45.0673ZM41.332 45.334C37.5987 45.334 34.6654 42.4007 34.6654 38.6673C34.6654 34.934 37.5987 32.0006 41.332 32.0006C45.0654 32.0006 47.9987 34.934 47.9987 38.6673C47.9987 42.4007 45.0654 45.334 41.332 45.334ZM31.9987 53.334V58.6673C17.2787 58.6673 5.33203 46.7206 5.33203 32.0006C5.33203 17.2807 17.2787 5.33398 31.9987 5.33398C44.9054 5.33398 55.652 14.5073 58.132 26.6673H52.612C51.7803 23.4456 50.2065 20.463 48.0164 17.958C45.8263 15.453 43.0806 13.4951 39.9987 12.2407V13.334C39.9987 16.2673 37.5987 18.6673 34.6654 18.6673H29.332V24.0007C29.332 25.4673 28.132 26.6673 26.6654 26.6673H21.332V32.0006H26.6654V40.0006H23.9987L11.2254 27.2273C10.8787 28.774 10.6654 30.3473 10.6654 32.0006C10.6654 43.7606 20.2387 53.334 31.9987 53.334Z" fill="#BBA664"/>
</svg>
