<svg width="14" height="14" viewBox="0 0 14 14" fill="none" xmlns="http://www.w3.org/2000/svg">
<path fill-rule="evenodd" clip-rule="evenodd" d="M9 7.5C9.64423 7.50004 10.2636 7.74877 10.7289 8.19433C11.1942 8.63989 11.4695 9.24788 11.4975 9.8915L11.5 10V10.5C11.5001 10.7523 11.4048 10.9953 11.2333 11.1803C11.0617 11.3653 10.8266 11.4786 10.575 11.4975L10.5 11.5H3.5C3.24771 11.5001 3.00472 11.4048 2.81973 11.2333C2.63474 11.0617 2.52142 10.8266 2.5025 10.575L2.5 10.5V10C2.50004 9.35577 2.74877 8.73642 3.19433 8.27111C3.63989 7.8058 4.24788 7.53046 4.8915 7.5025L5 7.5H9ZM9 8.5H5C4.61739 8.49998 4.24924 8.64616 3.97087 8.90864C3.6925 9.17112 3.52495 9.53005 3.5025 9.912L3.5 10V10.5H10.5V10C10.5 9.61739 10.3538 9.24924 10.0914 8.97087C9.82888 8.6925 9.46995 8.52495 9.088 8.5025L9 8.5ZM7 1.5C7.66304 1.5 8.29893 1.76339 8.76777 2.23223C9.23661 2.70107 9.5 3.33696 9.5 4C9.5 4.66304 9.23661 5.29893 8.76777 5.76777C8.29893 6.23661 7.66304 6.5 7 6.5C6.33696 6.5 5.70107 6.23661 5.23223 5.76777C4.76339 5.29893 4.5 4.66304 4.5 4C4.5 3.33696 4.76339 2.70107 5.23223 2.23223C5.70107 1.76339 6.33696 1.5 7 1.5ZM7 2.5C6.80302 2.5 6.60796 2.5388 6.42597 2.61418C6.24399 2.68956 6.07863 2.80005 5.93934 2.93934C5.80005 3.07863 5.68956 3.24399 5.61418 3.42597C5.5388 3.60796 5.5 3.80302 5.5 4C5.5 4.19698 5.5388 4.39204 5.61418 4.57403C5.68956 4.75601 5.80005 4.92137 5.93934 5.06066C6.07863 5.19995 6.24399 5.31044 6.42597 5.38582C6.60796 5.4612 6.80302 5.5 7 5.5C7.39782 5.5 7.77936 5.34196 8.06066 5.06066C8.34196 4.77936 8.5 4.39782 8.5 4C8.5 3.60218 8.34196 3.22064 8.06066 2.93934C7.77936 2.65804 7.39782 2.5 7 2.5Z" fill="#9094A0"/>
</svg>
